<?xml version="1.0" encoding="UTF-8"?><svg xmlns="http://www.w3.org/2000/svg" viewBox="0 0 1191.68 547.05"><defs><style>.d{fill:#979797;}.e{fill:#282827;}.f{fill:#2b2b2a;}.g{fill:#fff;}.h{fill:#2d2d2c;}.i{fill:#424241;}.j{fill:#2a2a29;}.k{fill:#30302f;}.l{fill:#747473;}.m{fill:#2e2e2d;}.n{fill:#323130;}.o{fill:#353434;}.p{fill:#5a5959;}.q{fill:#343332;}</style></defs><g id="a"/><g id="b"><g id="c"><g><path class="g" d="M593.62,7.9c.16-2.45,.61-4.94-.63-7.9-2.32,3.43,.15,7.06-2.11,9.72-2.06-6.15-6.83-8.21-12.92-8.95,2.09,8.77,4.95,11.47,12.81,12.49,1.13,.39,.8,2.54,2.24,2.21,1.16-.26,.78-1.65,.78-2.6,0-1.66-.1-3.31-.16-4.97Zm-2.8,16.85c-2.18-6.71-6.11-9.54-12.91-9.3,1.92,8.24,5.02,11.09,12.79,11.77l1.12,.57c.01,3.73,.03,7.47,.04,11.2-2.96-4.11-5.31-8.91-11.2-9.65-.94-.12-2.11-.97-2.68,.04-.38,.66,.03,1.88,.31,2.79,2.05,6.62,7.14,9.03,13.5,9.64,0,2.31,0,4.62,0,6.93-.69,.73,.44,3.14-2.04,2.22-2.82-5.73-6.12-7.73-12.15-7.38,1.51,8,5.32,11.39,13.18,11.74,.29,.27,.58,.55,.87,.82-.07,3.28-.15,6.56-.22,9.84l-1.63-.18c-1.81-6.12-6.55-7.96-12.31-8.69,1.08,7.98,4.41,11.26,12.3,12.41l1.3,.15c-.01,3.39-.03,6.78-.04,10.17-1.62,.66-1.42-.97-1.76-1.59-2.65-4.84-6.85-6.76-12.22-7.14,1.61,8.64,5.16,11.84,13.75,12.66v11.44c-11.33-6.02-22.31-11-32.65-17.27-.94,2,.11,2.92,1.66,4.01,.83,.59,3.51,.32,2.15,2.77-6,.94-10.71,3.5-12.31,9.88-.24,.96-1.24,2.58,.85,2.56,3.26-.03,6.32-1.12,8.36-3.74,1.95-2.51,4.72-4.96,2.85-8.79,1.8-2.19,2.93,.22,4.05,.81,5.53,2.95,10.92,6.15,16.37,9.27,.21,2.49-1.9,1.67-3.05,2.01-6.22,1.85-9.02,5.16-9.77,11.76,8.12,.04,13.04-5.01,13.23-13.58,6.44,3,9.23,7.66,8.13,15.04-.82,5.55-.5,11.29-.57,16.94-.08,6.19-.02,12.38-.02,19.23-12.66-6.5-24.3-12.47-35.91-18.48-.68-.35-2.12-.48-1.31-1.95,9.06-1.61,11.87-4.23,13.45-12.5-8.3,.3-12.92,4.68-13.3,12.63-4.48,.09-7.66-2.61-10.92-5.12,.3-.3,.59-.61,.88-.92,6.77-.49,11.47-4.04,12.73-9.72,.26-1.14,1.1-2.56-1.44-2.55-6,.02-11.54,6.05-11.11,12.42-2.52,2.03-2.59-.66-2.96-1.78-.5-1.53-.42-3.24-.69-5.88q-2.07,9.89,4.67,14.55c.19,.13,.19,.52,.3,.81-5.83,1.11-10.75,3.46-12.51,9.7-.29,1.04-1.58,3.07,1.37,3.1,6.13,.07,11.91-6.67,10.96-12.93,3.93,1.26,7.43,3.27,10.43,6.15-5.45,.54-9.92,2.6-12.26,7.94-.59,1.35-1.57,3.02-.51,4.15,1.07,1.13,2.87,.18,4.22-.22,5.04-1.5,8.29-6.29,8.37-12.03,3.37,.44,5.58,3.29,8.72,4.21,.67,1.05,.63,1.66-.79,2.06-1.9,.54-3.83,1.16-5.53,2.14-3.39,1.95-5.03,5.18-5.66,8.94-.14,.87,.63,1.07,1.3,1.06,3.71-.08,6.66-1.7,9.1-4.45,2.1-2.37,2.35-5.61,4.04-8.16,3.08,1.82,6.17,3.64,9.25,5.46-7,1.58-13.08,4.17-13.9,12.8,4.2,.63,7.42-1.04,10.18-3.95,2.33-2.45,2.69-5.88,4.32-8.68,2.88,1.96,5.77,3.93,8.65,5.89-7.01,1.41-12.36,4.55-13.21,12.53,6.24,.16,10.23-2.36,12.63-7.77,.64-1.44,.37-3.34,2.1-4.24,3.2,2.9,4.14,6.49,3.95,10.77-.44,10.31-.56,20.63-.75,30.95-.08,4.55-.01,9.1-.01,14.74-6.12-4.27-12.57-5.36-17.01-10.11,9.27-2.02,11.92-4.55,13.22-12.63-8.47,.48-13.15,5.05-13.07,12.76-4.01-.13-6.95-2.5-9.97-4.79,.44-1.86,2.08-1.01,3.15-1.31,4.93-1.39,7.78-4.77,9.35-9.44,.57-1.69,.56-2.8-1.89-2.56-6.65,.66-11.67,6.91-10.57,13.42-6.7-2.3-12.65-6.16-18.96-9.27-.96-.47-2.66-.4-2.33-2.27,8.75-1.01,13.01-5.1,13.09-12.58-8.8,1.42-12.4,4.97-12.93,12.73-3.99-.19-7.08-2.24-9.96-4.79,.58-1.47,1.97-.89,3-1.14,5.96-1.47,9.3-5.58,9.6-11.9-8.59,.7-13.33,5.67-12.52,13.15-3.62-.48-6.47-2.62-9.43-4.48-.87-.54-2.58-1.34-.99-2.94,6.67,1.73,12.6-3.53,13.01-11.54-8.28,1.05-11.74,4.17-12.93,11.7-2.67-.15-1.75-2.31-1.89-3.67-.24-2.45-.14-4.94-.18-7.41,.35-1.57,1.44-1.16,2.64-1.25,6.15-.43,10.84-4.37,12.2-9.94,.4-1.63,.74-2.91-1.89-2.51-5.66,.86-13.28,8.33-13.71,13.72-.45,3.27-.45,6.68-1.44,9.77-1.82,5.69,.51,8.6,5.67,10.16-.5,2.26-2.59,1.53-3.97,2.03-4.18,1.5-7.12,4.09-8.55,8.39-.92,2.76-.79,4.06,2.73,3.18,6.33-1.59,10.19-6.57,10.07-13.48,3.28,1.96,6.56,3.93,9.84,5.89-1.04,1.83-3.1,1.28-4.65,1.89-3.95,1.55-6.66,4.07-8.09,8.13-.98,2.78-.93,4.01,2.61,3.26,6.15-1.32,10.26-6.48,10.15-13.27,2.9,1.66,5.8,3.32,8.7,4.98,1.44,2.27-.59,1.85-1.67,2.14-4.52,1.22-8.15,3.49-9.77,8.18-.41,1.21-1.5,2.58-.4,3.63,.99,.94,2.55,.23,3.77-.09,5.4-1.39,8.81-6.15,9.37-12.88,2.93,1.66,5.86,3.32,8.79,4.98,.72,2.26-1.18,1.77-2.23,2.05-4.2,1.1-7.5,3.27-9.26,7.42-.58,1.36-1.6,3.03-.73,4.15,.96,1.23,2.73,.32,4.14-.1,4.73-1.42,7.23-4.88,8.72-9.33,.35-1.04-.36-2.96,1.93-2.59,6.55,3.84,13.1,7.67,19.65,11.51-3.47,1.35-7.55,1.16-10.39,4.12-2.32,2.42-5.49,6.17-3.5,8.31,2.09,2.26,6.03-.64,8.69-2.68,3.2-2.46,3.15-6.69,5.25-9.74,2.71,3.07,7.66,3.2,9.58,7.29-6.6-.39-11.69,2.76-13.69,8.41-.39,1.11-1,2.35-.3,3.32,.84,1.16,2.16,.22,3.22,.03,6.6-1.18,8.51-6.64,10.67-11.85,4.5,.85,5.38,4.55,5.43,8.03,.22,15.41,.09,30.82,.09,47.14-2.29-1.12-3.32-1.6-4.32-2.12-27.32-14.06-54.57-28.26-82.01-42.09-6.04-3.04-8.67-7.09-8.4-13.74,.16-3.96,1.01-8.06-.58-12.84-1.13,8.32-2.07,15.75-3.19,23.15-.42,2.78,.16,4.53,2.86,5.99,7.15,3.89,14.12,8.11,21.14,12.25,20.9,12.33,41.75,24.75,62.71,36.98,7.48,4.37,11.15,10.24,10.61,19.2-.65,10.63-.56,21.32-.46,31.98,.04,4.14-1.04,4.27-4.35,2.56-33.33-17.27-66.64-34.58-100.13-51.53-6.92-3.5-9.72-8.37-9.55-15.82,.11-4.95,.89-9.97-.6-14.9-1.45,8.88-2.34,17.81-3.87,26.64-.65,3.74,.15,5.64,3.45,7.53,15.73,8.98,31.34,18.17,46.94,27.39,19.6,11.59,39.09,23.37,58.74,34.86,6.15,3.6,8.93,8.49,8.55,15.57-.31,5.65-.08,11.33-.2,16.99-.1,4.3-1.71,7.78-5.98,9.47-.92,.37-2.22,.48-1.99,1.76,.3,1.69,1.87,1,2.89,1,8.33,.06,16.66,.04,24.99,.03,.96,0,2.06,.26,2.51-1.02q-8.23-6.84-8.31-18.71c-.02-3,.1-6.01-.07-8.99-.42-7.38,2.5-12.51,9.03-16.34,33-19.29,65.69-39.12,98.87-58.1,7.76-4.44,11.73-8.53,9.2-17.92-2.01-7.45-2.31-15.37-3.37-23.08-.64,6.84-.69,13.56-.63,20.29,.05,5.74-2.41,9.7-7.59,12.35-34.14,17.51-68.24,35.09-102.31,52.75-3.1,1.6-3.95,1.17-3.95-2.34,0-11.33,.04-22.67-.44-33.98-.32-7.57,2.86-12.78,9.02-16.54,7.24-4.41,14.5-8.79,21.81-13.08,21.06-12.39,42.15-24.72,63.2-37.11,1.6-.94,3.78-1.39,3.38-4.23-1.23-8.77-2.28-17.56-3.39-26.34-.63,5.29-.75,10.52-.6,15.73,.16,5.44-2.14,9.03-7.02,11.52-27.67,14.11-55.31,28.28-82.86,42.63-4.02,2.09-4.21,.65-4.22-2.78-.06-12.33,.15-24.68-.62-36.97-.51-8.15,2.67-12.97,9.5-16.88,19.91-11.37,39.6-23.14,59.33-34.84,1.53-.91,4.06-1.21,3.68-4.04-.84-6.23-1.64-12.47-2.45-18.71-.56,3.91-.54,7.73-.56,11.56,0,2.22-.24,4.65-2.22,5.83-8.87,5.31-17.88,10.41-27.61,14.04-.03,.01-.18-.26-.27-.4,4.65-8.14,4.86-11.36,1.08-16.98-6.43,5.85-7.2,12.86-1.98,17.93-3.35,3.49-8.09,4.58-12.1,6.93-1.06,.62-2.26,2.27-3.77,.54,3.2-5.34,4.47-10.73,.6-16.45-6.65,6.44-7.29,12.19-2.29,19.06-5.49,2.72-10.98,5.42-16.46,8.17-4.87,2.45-4.84,2.47-4.93-2.75-.23-13.13-.23-26.28-.81-39.4-.29-6.51,2.28-10.6,7.75-13.73,13.53-7.75,26.85-15.87,40.41-23.58,4.04-2.29,4.87-4.65,1.76-8.82-.15,3.51-2.31,4.87-4.76,6.12-13.58,6.95-27.11,13.99-40.7,20.93-1.39,.71-2.62,2.08-5.71,1.44v-43.67c1.8-2.03,3.78-3.46,5.97-4.72,8.04-4.64,16.04-9.36,24.02-14.1,1.74-1.03,4.24-1.84,2.17-5.09-1.93,2.13-3.86,4.31-7.07,3.17,.79,.09,1.28-.27,1.25-1.05-.15-5.24-6.38-11.03-11.58-11.03-2.42,0-1.7,1.21-1.36,2.51,1.5,5.64,5.52,8.96,11.65,9.56,.72,.42,.87,1.15,.18,1.5-8.36,4.22-16.31,9.28-25.2,12.41-.38-22.28-.77-44.56-1.15-66.84,.09-3.24,.74-6.53-.74-10.01-2.26,2.24,.13,5.24-2.12,6.94Zm-65.02,418.63c-6.54,0-13.96,.7-21.15,3.13-12.38,4.19-19.2,12.11-19.71,23-.49,10.3,5.31,17.86,17.81,23.21,9.82,4.21,20.29,6.22,30.56,8.93,8.34,2.19,16.88,3.92,24.18,8.87,7.85,5.31,8.56,14.74,1.71,21.3-3.08,2.96-6.89,4.56-10.9,5.8-6.27,1.93-12.75,2.35-19.23,2.57-20.19,.71-36.17-9.45-44.1-27.96-.26-.61-.4-1.27-.7-1.86-.66-1.32-1.92-1.19-3.05-1.01-1.98,.32-.99,1.67-.8,2.7,1.4,7.52,2.97,15,4.14,22.56,.4,2.62,1.58,3.57,3.92,4.28,13.94,4.25,28.18,6.74,42.73,6.47,10.67-.19,21.13-1.83,30.76-7.18,14.97-8.33,20.12-34.37,.01-45.08-4.12-2.19-8.26-4.29-12.75-5.57-10.54-3-21.12-5.83-31.66-8.84-5.91-1.69-11.85-3.45-16.8-7.31-5.95-4.65-5.9-11.79-.04-16.55,2.37-1.92,5.1-3.19,7.98-3.98,9.27-2.57,18.73-2.98,28.21-1.68,14.82,2.03,24.38,10.46,29.11,24.54,.26,.79,.61,1.55,.79,2.36,.47,2.16,2.07,2.53,3.82,2.2,2-.38,1.11-2.13,1.02-3.23-.5-6.14-1.21-12.26-1.71-18.39-.14-1.71-.72-2.67-2.34-3.35-13.1-5.45-26.31-10.34-41.81-9.93Zm-169.71,19.26c-11.77,0-21.59,.15-31.41-.09-3.23-.08-3.19,1.52-2.82,3.64,.34,2.01,2.15,1.44,3.22,1.23,5.43-1.06,6.02,1.63,5.96,6.25-.24,19.64-.25,39.29,0,58.93,.06,4.55-.67,6.89-5.77,5.99-1.62-.29-3.72-.74-3.58,2.41,.12,2.66,1.75,2.32,3.39,2.32,8.16,0,16.32-.03,24.48,.02,1.99,.01,3.55,.03,3.48-2.77-.08-2.97-2.17-2.11-3.51-1.97-3.1,.34-3.98-.74-3.9-3.84,.22-7.98,.18-15.98,.01-23.97-.06-2.64,.75-3.37,3.35-3.32,8.32,.15,16.65,.19,24.97-.02,2.91-.07,4.44,.85,5.73,3.47,5,10.12,10.35,20.06,15.31,30.2,1.54,3.14,3.46,4.26,6.9,4.05,4.81-.3,9.66,.08,14.48-.16,1.56-.08,4.2,1.62,4.55-1.97,.34-3.39-2.24-2.75-3.93-2.95-5.66-.68-9.43-3.61-11.74-8.77-3.12-6.96-6.17-13.98-9.7-20.73-1.89-3.61-1.73-4.89,2.49-6.35,8.97-3.11,13.66-10.37,13.46-19.5-.21-9.18-5.01-15.22-13.34-18.62-3.08-1.26-6.3-2.04-9.6-2.55-11.44-1.75-22.95-.47-32.47-.92Zm-308.29-17.27v-.32c-14.15,0-28.31-.03-42.46,.04-1.86,0-4.55-1.15-4.53,2.67,.01,3.85,2.79,2.82,4.56,2.58,4.49-.61,5.02,1.46,4.99,5.33-.17,25.3-.25,50.61,.05,75.91,.06,5.21-1.29,7.2-6.48,6.37-2.02-.32-4.01-.33-3.91,2.85,.09,2.96,2,2.51,3.79,2.51,8.99,.01,17.98,.05,26.97-.03,1.88-.02,4.58,1.14,4.6-2.65,.02-3.77-2.65-2.54-4.56-2.71-1.98-.18-4.28,.83-4.2-2.91,.22-11.32,.1-22.64,.05-33.96,0-1.8,.35-2.74,2.44-2.67,10.3,.36,20.64-.72,30.9,.98,6.54,1.08,11.32,4.02,11.53,11.42,.05,1.86,.9,2.16,2.48,2.15,1.78,0,2.22-.81,2.22-2.46-.05-9.99-.04-19.98-.02-29.97,0-1.67-.16-2.82-2.37-2.84-2.32-.02-2.12,1.32-2.29,2.88-.97,8.74-3.55,11.57-12.16,11.98-9.97,.48-19.97,.3-29.95,.53-2.24,.05-2.79-.76-2.77-2.87,.08-12.32,.08-24.64,0-36.96-.01-2.13,.55-2.88,2.78-2.85,13.82,.17,27.64-.03,41.45,.39,8.75,.26,15.08,4.68,18.19,13.14,1.09,2.96,2.37,5.86,3.16,8.9,.6,2.34,1.6,3.57,4.06,3.09,2.77-.54,1.34-2.67,1.21-3.98-.78-7.61-1.98-15.18-2.59-22.8-.24-3.06-1.16-3.85-4.15-3.82-14.32,.16-28.63,.07-42.95,.07Zm110.5,99.53c7.81,.18,17.24-1.6,26.19-5.48,11.71-5.08,21.13-12.71,25.26-25.29,5.58-16.98-2.53-36.05-20.3-45.21-23.53-12.13-47.33-11.4-69.65,3-23.15,14.93-23.9,43.85-2.23,60.94,11.34,8.94,24.61,11.98,40.73,12.05Zm786.65,0c13.26,.08,25.71-2.87,36.95-10.1,8.08-5.19,14.12-12.11,16.86-21.48,4.94-16.9-3.03-35.34-20.41-44.34-23.51-12.16-47.29-11.49-69.64,2.85-23.36,14.99-24.05,44.23-2.09,61.24,11.26,8.72,24.36,11.75,38.33,11.82Zm-314.14-1.57v.38c12.33,0,24.66-.14,36.98,.1,3.01,.06,4.11-.82,4.51-3.63,.69-4.94,1.66-9.84,2.44-14.77,.15-.93,1.41-2.43-.66-2.71-1.34-.18-3.01-.75-3.73,1.36-.53,1.56-1.36,3.02-2.09,4.52-2.67,5.46-6.79,8.97-13.05,9.47-13.47,1.08-26.97,.22-40.46,.49-1.54,.03-1.97-.73-1.97-2.12,.02-10.16,.04-20.33-.02-30.49-.01-1.72,.58-2.35,2.29-2.28,8.81,.37,17.66-.76,26.43,.82,5.24,.95,9.12,3.22,9.24,9.24,.03,1.75,.51,2.87,2.6,2.71,1.99-.15,1.87-1.52,1.87-2.86,0-8.5-.01-16.99,.02-25.49,0-1.46-.04-2.58-1.99-2.66-2.08-.09-2.32,.97-2.53,2.71-.94,7.79-3.22,10.08-11.11,10.42-7.82,.34-15.66,.09-23.49,.31-3.29,.09-3.65-1.28-3.18-5.61,.72-6.75,.81-13.56-.02-20.29-.58-4.67,.3-5.55,3.53-5.51,10.5,.14,21,.3,31.49-.02,9.34-.29,15.04,4.12,18.28,12.46,.36,.93,.79,1.84,1.04,2.8,.38,1.42,1.25,1.86,2.6,1.57,1.66-.35,1.35-1.52,1.2-2.72-.54-4.29-1.08-8.59-1.48-12.9-.6-6.4-.61-6.89-6.12-6.37-1.97,.19-5.2,.33-7.18,.33-20.79,.02-41.59-.01-62.38,.13-1.48,.01-4.21-1.74-4.51,1.91-.3,3.76,2.4,3.06,4.3,2.78,4.21-.6,4.81,1.33,4.78,5.02-.17,20.32-.2,40.65,.02,60.97,.05,4.11-.94,5.71-5.16,5.21-1.35-.16-3.84-1.4-3.97,1.97-.13,3.35,2.1,2.71,4,2.72,12.5,.02,24.99,0,37.49,0Zm462.98-20.25c-1.85-1.71-3.03-2.76-4.18-3.85-18.88-17.83-37.75-35.67-56.64-53.5-1.66-1.57-3.08-3.27-5.88-3.15-5.65,.24-11.32,.06-16.98,.08-1.61,0-3.33-.42-3.28,2.32,.05,2.5,1.42,2.45,3.22,2.55,5.59,.32,6.74,1.63,6.74,7.37,0,18.98-.19,37.96,.13,56.93,.09,5.13-.67,7.9-6.48,6.75-1.75-.35-3.24-.14-3.13,2.45,.11,2.64,1.77,2.3,3.43,2.3,5,0,9.99,.02,14.99-.02,1.86-.02,4.15,.72,4.01-2.68-.13-3.35-2.61-2.14-3.97-1.99-3.97,.45-4.91-1.06-4.87-4.91,.21-17.64,.07-35.29,.12-52.94,0-1.55-.6-3.28,1.1-5.12,25.1,23.62,50.12,47.16,75.86,71.38,0-25.26,.05-49.38-.05-73.5-.02-3.75-.38-7.15,5.1-6.09,1.77,.34,2.24-.83,2.29-2.4,.05-1.61-.37-2.46-2.2-2.43-5.33,.07-10.66,.06-15.98,0-1.76-.02-2.27,.73-2.22,2.39,.05,1.59,.48,2.55,2.26,2.47,1.33-.05,2.67,.09,3.99-.03,1.85-.16,2.66,.36,2.65,2.43-.07,17.41-.04,34.82-.04,53.17Zm-253.72-61.23c-9.7,0-18.8,1.98-24.6,5.39-13.46,7.91-13.56,24.86-.18,32.82,4.47,2.66,9.38,4.18,14.32,5.66,10.33,3.09,21.15,4.53,31.07,8.99,4.83,2.18,9.25,4.98,9.06,11.24-.19,6.14-3.95,9.72-9.25,11.78-9.71,3.77-19.81,4.54-29.91,2.26-11.78-2.66-20.2-9.68-24.9-20.97-.58-1.4-.7-3.83-3.04-3.11-2.4,.74-.86,2.9-.65,4.27,.77,5.09,2.04,10.11,2.72,15.21,.39,2.93,1.73,4.27,4.46,5.07,10.12,2.95,20.46,4.7,30.96,4.98,9.02,.24,18-.8,26.25-4.92,8.16-4.08,12.29-10.75,12.63-19.95,.34-9.08-4.61-14.6-11.94-18.57-6.62-3.59-13.89-5.43-21.11-7.4-8.47-2.32-17.24-3.77-25.09-8.01-3.49-1.88-6.47-4.28-6.14-8.84,.32-4.4,3.31-6.68,6.95-8.34,6.55-2.99,13.55-3.24,20.55-3.02,15.94,.51,23.92,6.31,29.63,21.22,.18,.47,.42,.92,.53,1.4,.33,1.46,1.35,1.73,2.63,1.58,1.94-.23,1.21-1.62,1.12-2.67-.41-4.81-1-9.61-1.23-14.43-.1-2-.94-3.01-2.62-3.68-10.37-4.14-20.84-7.92-32.23-7.96Zm313.76,83.75c9.23-.58,18.2-1.18,26.32-5.73,7.87-4.41,11.5-11.27,11.55-20.13,.05-8.28-4.56-13.57-11.4-17.39-6.75-3.77-14.15-5.66-21.51-7.72-8.3-2.32-16.88-3.75-24.66-7.74-3.72-1.91-6.95-4.23-6.75-8.96,.2-4.88,3.66-7.22,7.66-8.89,20.96-8.8,40.63-1.13,49.72,19.33,.07,.15,.08,.32,.13,.48,.39,1.3,1.27,1.85,2.63,1.74,1.95-.16,1.31-1.62,1.24-2.63-.35-4.98-.86-9.95-1.16-14.94-.13-2.13-1.61-2.72-3.14-3.37-5.82-2.46-11.76-4.61-17.93-6.03-12.66-2.92-25.14-2.61-37.1,2.94-7.26,3.37-11.26,9.3-11.46,17.34-.2,7.86,4.15,13.07,10.77,16.64,6.5,3.5,13.61,5.26,20.68,7.1,7.87,2.05,15.91,3.51,23.4,6.85,5.06,2.25,9.75,5.06,9.59,11.42-.17,6.51-4.46,10.23-10.17,12.21-9.46,3.27-19.23,4.14-29.02,1.89-12-2.75-20.44-9.99-25.11-21.45-.57-1.41-.87-3.17-2.87-2.69-2.57,.62-.81,2.47-.62,3.64,.88,5.42,2.22,10.77,2.85,16.21,.33,2.92,1.76,3.93,4.18,4.65,10.59,3.18,21.45,4.58,32.2,5.22Zm-384.32-7.06c-2.09,0-3.11-.14-4.08,.03-1.65,.29-4.33-1.28-4.27,2.33,.06,3.43,2.57,2.39,4.32,2.4,8.16,.05,16.31-.01,24.47-.08,1.73-.01,3.76,.57,3.75-2.49,0-2.88-1.99-2.37-3.41-2.14-3.86,.63-5.49-1.47-7.15-4.52-10.56-19.39-22.03-38.33-31.69-58.15-5.15-10.55-11.29-15.9-22.98-13.23-2.17,.5-5.96-2.25-6.35,2.03-.48,5.3,4.44,1.34,6.4,3.47-.67,1.28-1.47,2.87-2.34,4.43-11.4,20.44-22.86,40.85-34.16,61.35-1.63,2.96-3.1,5.37-7.03,4.59-1.8-.36-2.81,.34-2.66,2.42,.11,1.61,.59,2.4,2.37,2.38,5.33-.08,10.66-.08,15.98,0,1.89,.02,2.11-.98,2.16-2.51,.05-1.66-.39-2.46-2.22-2.33-1.85,.13-3.73,.03-6.16,.03,3.92-7.02,7.47-13.2,10.83-19.48,1.02-1.92,2.32-2.41,4.37-2.4,14.98,.08,29.97,.05,44.95,.03,1.51,0,2.84-.05,3.74,1.63,3.5,6.53,7.14,12.99,11.14,20.21Zm-466.44-46.91c-.4,6.8,.76,15.32-1.2,23.72-3.66,15.65-17.34,25.72-34,24.94-15.79-.74-24.89-9.62-27.18-27-1.75-13.26-.21-26.63-.88-39.92-.23-4.67,.79-6.84,5.78-5.89,2.04,.39,3.43-.03,3.37-2.77-.07-3-2.1-2.01-3.48-2.02-8.33-.07-16.66-.1-24.99,.02-1.47,.02-3.83-1.27-4,2.03-.17,3.31,2,3.03,3.91,2.72,4.12-.68,4.48,1.41,4.44,4.79-.15,11.99-.22,23.99,.09,35.98,.46,18.27,10.79,30.96,28.24,35.15,5.54,1.33,11.19,1.68,16.87,1.49,21.11-.68,35.74-14.47,36.93-35.59,.68-12.12,.48-24.31,.38-36.46-.03-3.73,.26-6.22,4.88-5.34,1.8,.34,2.67-.37,2.72-2.42,.05-2.09-.8-2.48-2.63-2.44-4.5,.1-9-.06-13.49,.08-1.5,.05-3.82-1.17-3.9,2.14-.08,3.44,2.28,2.85,4.06,2.6,3.86-.55,4.28,1.34,4.16,4.54-.23,5.99-.06,11.99-.06,19.65Zm395.87-170.25c-.78-7.28-4.43-11.37-10.49-12.46-2.61-.47-3.2,.37-2.73,2.84,1.02,5.29,5.18,8.47,13.22,9.63Zm-2.14-64.26c.5,6.98,3.97,11,9.94,12.37,3.47,.8,3.74-.83,2.94-3.38-1.91-6.1-6.65-8.33-12.88-8.99Zm18.96,50.4c.16-5.52-4.21-11.16-9.23-12.28-1.27-.28-1.67-.19-2.01,1.1-1.12,4.28,2.11,9.77,7.38,12.31,.45,.21,.92,.37,1.37,.59,2.07,1.05,2.69,.18,2.49-1.72Zm-39.93-101.35c1.32,5.95,4.09,10.43,10.51,11.84,2.62,.58,3.79,.47,2.78-2.76-1.82-5.8-6.38-9.12-13.29-9.08Zm-6.04,69.58c1.46,6.53,4.31,10.9,10.66,12.42,3.55,.85,3.6-.35,2.64-3.17-2.1-6.14-6.72-8.5-13.3-9.25Zm-17.74-126.59c.94,6.93,5.03,11.37,10.86,12.13,2.2,.29,2.55-.26,2.14-2.34-1.09-5.64-5.88-9.35-13.01-9.79Zm71.72,80.65c-6.14,2.46-9.55,6.42-9.84,12.77-.12,2.7,.68,3.76,3.41,2.18,5.65-3.25,7.25-8.25,6.43-14.95Zm-102.68-23.77c1.35,8.3,5.85,12.24,13.26,11.59-1.51-7.97-5.47-11.43-13.26-11.59Zm43.68,118.3c-.3-1.2,.54-2.88-1.04-3.52-1.21-.49-2.1,.75-3,1.4-3.74,2.73-5.71,6.42-5.55,11.08,.04,1.11,.24,2.61,.97,3.19,1.01,.82,2.09-.51,2.98-1.1,3.91-2.62,5.51-6.47,5.65-11.07Zm-162.02-175.07c.66,6.66,4.29,10.78,10.22,12.08,2.73,.6,3.27-.26,2.67-2.71-1.34-5.48-5.89-8.81-12.9-9.37Zm181.87,6.03c-8.95,1.33-12.38,4.64-13.05,12.23,7.64-.09,11.81-3.89,13.05-12.23Zm-120.15,19.35c-8.08,.41-11.59,3.51-13.26,11.7,7.4,.65,12.28-3.66,13.26-11.7Zm82.76-68.7c6.25-1.75,9.91-6.98,9.52-13.18-.18-2.86-1.3-2.37-3.1-1.4-5.35,2.87-7.51,7.67-6.42,14.59Zm-20.41,208.89c.31-4.56-7.44-11.51-12.22-11.07-1.62,.15-1.21,.89-1.04,1.94,.83,5.27,5.76,10.04,11,10.58,1.21,.13,2.4,.43,2.26-1.45Zm-103.71-208.07c1.36,6.44,4.11,10.84,10.5,12.37,3.61,.87,3.66-.49,2.72-3.22-2.07-5.96-6.62-8.34-13.22-9.15Zm-21.02,55.06c-1.4-.18-1.54,.43-1.43,1.71,.42,4.98,6.57,10.65,11.46,10.7,1.81,.02,1.82-.76,1.73-2.06-.33-4.66-7.08-10.63-11.76-10.36Zm72.91-96.87c-7.7,1.43-11.59,4.41-12.93,9.58-.61,2.34-.33,3.36,2.55,2.76,5.91-1.24,9.47-5.17,10.38-12.34Zm88.06,44.98c-6.53-.04-11.55,3.58-13,9.2-.58,2.25-.06,2.98,2.33,2.7,5.54-.65,9.57-5.05,10.67-11.9Zm-100.01,20.63c7.33-.3,11.86-3.87,13.39-9.96,.53-2.13,.18-2.55-2.05-2.21-6.08,.94-9.72,4.63-11.34,12.16Zm63.02-64.31c.05-4.97-4.6-10.51-9.41-11.53-1.83-.39-2.25,.02-2.14,1.91,.28,5,4.1,9.89,8.97,11.29,1.74,.5,2.99,.68,2.59-1.67Zm37.43,231.04c-1.64-8.22-5.59-11.66-13.45-11.7,1.62,8.38,6.05,12.23,13.45,11.7Zm33.12-62.6c1.13,7.23,4.5,10.94,10.12,12.31,3.63,.88,3.66-.71,2.76-3.24-2.06-5.81-6.53-8.34-12.88-9.08Zm-6.72-31.01c-.24-4.81-6.64-10.52-11.62-10.63-1.51-.03-1.58,.58-1.55,1.71,.14,4.69,6.5,10.68,11.4,10.84,1.63,.06,2.11-.48,1.76-1.92Zm-46.41-93c.41-6.8-2.76-11.66-8.56-13.62-2.34-.79-3.38-.56-2.77,2.32,1.29,6.12,4.75,9.98,11.34,11.29Zm-40.91,41c1.24,7.17,4.49,11.08,9.9,12.13,1.05,.2,2.51,1.14,3.17-.1,.44-.82,.05-2.27-.33-3.31-2.08-5.65-6.51-8.03-12.74-8.72Zm40.1-88.65c-7.32,.39-11.35,3.33-13.25,8.96-.92,2.72-.61,3.65,2.49,3.03,6.49-1.3,9.28-5.8,10.76-11.99Zm-70.96-11.16c-6.2,2.06-9.96,5.76-10.61,12.15-.26,2.53,.5,3.36,3.11,2.24,5.17-2.22,7.75-6.76,7.49-14.39Zm-32.17,53.95c.71-8.01-2.99-13.11-10.4-14.35,.02,8.64,3.22,13.05,10.4,14.35Zm171.42,108.61c-6.49,.43-10.74,3.22-12.89,8.99-1.18,3.17,.12,3.8,2.99,3.17,5.31-1.18,8.71-5.18,9.91-12.16Zm-157.33-136.08c2.61,.83,2.56-.73,2.18-2.64-.95-4.73-6.51-9.39-11.33-9.73-2.47-.17-1.79,1.26-1.54,2.47,1.02,4.92,5.59,9.16,10.69,9.9Zm87.26,118.17c-2-.73-2.55,0-2.13,2.11,.91,4.66,5.67,9.16,10.49,10.01,2.94,.52,2.94-.86,2.36-2.98-1.29-4.71-5.6-8.45-10.72-9.13Zm-130.63-62.69c-1.66,6.87,.24,12.02,5.23,15.11,2.66,1.65,3.33,.86,3.45-1.95,.28-6.54-3.34-10.35-8.69-13.16Zm48.99-31.06c8.15-.16,12.51-4.27,13.07-11.92-7.89,.54-11.47,3.74-13.07,11.92Zm-11.13-49.03c-.67,6.74,1.79,11.47,6.91,13.99,2.85,1.4,3.41,.37,3.28-2.3-.28-5.86-3.93-10.12-10.19-11.68Zm148.88,151.84c4.52,.5,11.81-6.27,11.85-10.94,.01-1.25-.28-1.65-1.67-1.59-4.96,.21-10.85,5.31-11.45,10.15-.13,1.04-.79,2.47,1.27,2.38Zm-146.89,11.94c-5.12,.16-11.06,5.6-11.35,10.32-.07,1.07-.16,1.79,1.35,1.95,3.85,.41,9.3-3.68,11.16-8.62,.23-.62,.42-1.25,.59-1.89,.43-1.62-.2-2.19-1.76-1.77Zm36.66-92.03c.42-1.69-.41-1.88-1.87-1.82-4.74,.19-10.4,5.22-11.19,9.84-.37,2.18,.44,2.51,2.34,2.33,4.73-.45,10.36-5.8,10.72-10.35Zm50.09-75.18c-.41-1.47,.36-3.44-1.07-4.19-1.81-.96-2.78,1.15-4,2.06-.77,.58-1.38,1.42-1.96,2.22-2.28,3.17-2.56,6.71-1.75,10.39,.22,.98,1.05,1.29,1.91,.8,3.14-1.79,5.39-4.32,6.23-7.92,.26-1.12,.43-2.26,.63-3.36Zm14.74,225.49c2.3,.61,2.63-.59,2.17-2.67-1.01-4.58-6.34-9.11-10.99-9.46-1.93-.15-2.24,.5-1.91,2.21,.9,4.74,5.9,9.49,10.74,9.93Z"/><path class="j" d="M522.2,178.7c-5.17-1.56-7.49-4.47-5.67-10.16,.99-3.09,.99-6.5,1.44-9.77,.26,0,.52,0,.77-.02,.04,2.47-.06,4.96,.18,7.41,.13,1.36-.78,3.52,1.89,3.67,0,0-.08-.17-.08-.17-1.59,1.61,.12,2.4,.99,2.94,2.95,1.86,5.8,4.01,9.43,4.48l-.07-.09c2.86,2.54,5.95,4.59,9.94,4.77l-.16-.15c-.33,1.88,1.37,1.8,2.33,2.28,6.31,3.12,12.25,6.97,18.96,9.27l-.02-.09c2.99,2.26,5.93,4.63,9.95,4.76l-.14-.13c4.43,4.75,10.88,5.85,17,10.11,0-5.64-.07-10.19,.01-14.74,.19-10.32,.31-20.64,.75-30.95,.18-4.29-.76-7.87-3.95-10.77-.36-.6-.9-.68-1.53-.53-2.88-1.96-5.77-3.93-8.65-5.89-.17-.17-.38-.23-.6-.17-3.08-1.82-6.17-3.64-9.25-5.46-.82-.53-1.64-1.05-2.46-1.58-3.14-.92-5.35-3.77-8.72-4.21l.15,.15c-2.98-2.88-6.48-4.88-10.41-6.14l.16,.11c-.09-.27-.09-.66-.28-.79q-6.73-4.66-4.67-14.55c.27,2.64,.19,4.35,.69,5.88,.36,1.12,.43,3.81,2.96,1.78l-.17-.15c-.3,.3-.59,.61-.89,.91,3.26,2.52,6.44,5.21,10.92,5.12l-.14-.13c-.82,1.47,.62,1.6,1.3,1.95,11.62,6.02,23.26,11.98,35.91,18.48,0-6.84-.06-13.03,.02-19.23,.07-5.66-.25-11.39,.57-16.94,1.1-7.38-1.7-12.04-8.13-15.04l-.41-.19c-5.44-3.11-10.84-6.32-16.37-9.27-1.12-.6-2.24-3-4.04-.81,0,0,.24,.09,.24,.09,1.36-2.45-1.31-2.18-2.15-2.77-1.55-1.09-2.59-2.01-1.66-4.01,10.34,6.27,21.32,11.25,32.65,17.27v-11.44c1.41-1.23,1.37-2.55,.23-3.94,.01-3.39,.03-6.78,.04-10.17,1.25-1.12,.99-2.38,.35-3.68,.07-3.28,.15-6.56,.22-9.84,.05-2.47,.09-4.93,.14-7.4,0-2.31,0-4.62,0-6.93l.07-2.82c-.01-3.73-.03-7.47-.04-11.2l1.86,.03c.38,22.28,.77,44.56,1.15,66.84,.08,2.28,.16,4.55-.04,6.83v43.67c3.09,.65,4.32-.73,5.71-1.44,13.58-6.94,27.12-13.98,40.7-20.93,2.45-1.25,4.61-2.61,4.76-6.12,3.11,4.17,2.28,6.53-1.76,8.82-13.56,7.7-26.87,15.83-40.41,23.58-5.46,3.13-8.03,7.22-7.75,13.73,.58,13.12,.58,26.26,.81,39.4,.09,5.21,.06,5.19,4.93,2.75,5.47-2.75,10.97-5.45,16.46-8.17,.22-.11,.39-.27,.53-.47,.52-.64,2.26-.69,1.05-2.17l.11,.03c1.51,1.73,2.71,.08,3.77-.54,4.01-2.34,8.75-3.44,12.1-6.93l-.07,.1c.85,.11,1.74,.25,1.12-1.12l-.15,.06c.09,.14,.23,.41,.27,.4,9.73-3.63,18.74-8.73,27.61-14.04,1.97-1.18,2.21-3.61,2.22-5.83,.02-3.83,0-7.65,.56-11.56,.82,6.24,1.62,12.47,2.45,18.71,.38,2.82-2.16,3.13-3.68,4.04-19.72,11.7-39.41,23.47-59.33,34.84-6.83,3.9-10.02,8.72-9.5,16.88,.78,12.29,.57,24.64,.62,36.97,.02,3.44,.2,4.88,4.22,2.78,27.55-14.35,55.19-28.52,82.86-42.63,4.88-2.49,7.18-6.08,7.02-11.52-.15-5.21-.03-10.43,.6-15.73,1.12,8.78,2.16,17.57,3.39,26.34,.4,2.84-1.78,3.29-3.38,4.23-21.05,12.39-42.15,24.72-63.2,37.11-7.31,4.3-14.57,8.67-21.81,13.08-6.16,3.76-9.34,8.97-9.02,16.54,.48,11.31,.45,22.65,.44,33.98,0,3.51,.85,3.95,3.95,2.34,34.07-17.65,68.17-35.24,102.31-52.75,5.18-2.65,7.64-6.61,7.59-12.35-.06-6.72-.02-13.45,.63-20.29,1.06,7.71,1.36,15.62,3.37,23.08,2.53,9.39-1.45,13.48-9.2,17.92-33.18,18.97-65.87,38.8-98.87,58.1-6.54,3.82-9.46,8.95-9.03,16.34,.17,2.99,.05,6,.07,8.99q.08,11.88,8.31,18.71c-.46,1.28-1.55,1.02-2.51,1.02-8.33,.01-16.66,.03-24.99-.03-1.02,0-2.59,.69-2.89-1-.23-1.28,1.06-1.39,1.99-1.76,4.27-1.7,5.89-5.17,5.98-9.47,.13-5.66-.1-11.34,.2-16.99,.39-7.08-2.39-11.97-8.55-15.57-19.66-11.49-39.14-23.27-58.74-34.86-15.59-9.22-31.2-18.42-46.94-27.39-3.3-1.89-4.1-3.78-3.45-7.53,1.53-8.83,2.42-17.76,3.87-26.64,1.49,4.93,.71,9.95,.6,14.9-.17,7.45,2.62,12.32,9.55,15.82,33.49,16.95,66.8,34.25,100.13,51.53,3.31,1.72,4.39,1.59,4.35-2.56-.1-10.66-.19-21.35,.46-31.98,.55-8.96-3.13-14.84-10.61-19.2-20.96-12.23-41.81-24.65-62.71-36.98-7.01-4.14-13.98-8.36-21.14-12.25-2.69-1.46-3.28-3.21-2.86-5.99,1.12-7.4,2.06-14.83,3.19-23.15,1.59,4.78,.74,8.89,.58,12.84-.27,6.65,2.37,10.7,8.4,13.74,27.44,13.83,54.69,28.03,82.01,42.09,1,.52,2.03,1,4.32,2.12,0-16.32,.12-31.73-.09-47.14-.05-3.48-.93-7.18-5.43-8.03l.1,.1c-1.93-4.1-6.88-4.23-9.59-7.3h-.05c-6.55-3.84-13.1-7.68-19.65-11.52-.63-.89-1.45-1.49-2.57-1.6-2.93-1.66-5.86-3.32-8.79-4.98l-1.31-.98c-2.9-1.66-5.8-3.32-8.7-4.98h-.02c-3.28-1.98-6.56-3.94-9.84-5.9l-.28-.12Z"/><path class="e" d="M525.8,443.38c15.49-.42,28.71,4.48,41.81,9.93,1.62,.67,2.2,1.64,2.34,3.35,.5,6.14,1.21,12.26,1.71,18.39,.09,1.1,.98,2.85-1.02,3.23-1.74,.33-3.34-.04-3.82-2.2-.18-.8-.52-1.57-.79-2.36-4.73-14.08-14.29-22.51-29.11-24.54-9.48-1.3-18.94-.88-28.21,1.68-2.88,.8-5.62,2.06-7.98,3.98-5.86,4.76-5.91,11.9,.04,16.55,4.94,3.86,10.89,5.62,16.8,7.31,10.53,3.01,21.12,5.84,31.66,8.84,4.49,1.28,8.63,3.38,12.75,5.57,20.1,10.71,14.96,36.75-.01,45.08-9.62,5.35-20.08,6.99-30.76,7.18-14.56,.26-28.8-2.22-42.73-6.47-2.33-.71-3.51-1.66-3.92-4.28-1.16-7.55-2.74-15.04-4.14-22.56-.19-1.02-1.18-2.37,.8-2.7,1.14-.19,2.39-.32,3.05,1.01,.3,.59,.44,1.25,.7,1.86,7.93,18.51,23.91,28.67,44.1,27.96,6.49-.23,12.97-.65,19.23-2.57,4.01-1.23,7.82-2.84,10.9-5.8,6.84-6.57,6.14-15.99-1.71-21.3-7.31-4.94-15.85-6.67-24.18-8.87-10.27-2.7-20.73-4.71-30.56-8.93-12.49-5.36-18.29-12.91-17.81-23.21,.51-10.89,7.33-18.82,19.71-23,7.19-2.43,14.6-3.14,21.15-3.13Z"/><path class="j" d="M356.09,462.64c9.52,.45,21.03-.83,32.47,.92,3.31,.51,6.53,1.29,9.6,2.55,8.33,3.4,13.14,9.44,13.34,18.62,.21,9.13-4.48,16.4-13.46,19.5-4.22,1.46-4.38,2.74-2.49,6.35,3.53,6.76,6.58,13.77,9.7,20.73,2.31,5.16,6.09,8.09,11.74,8.77,1.7,.2,4.27-.43,3.93,2.95-.36,3.59-3,1.9-4.55,1.97-4.82,.24-9.67-.14-14.48,.16-3.44,.21-5.36-.91-6.9-4.05-4.96-10.14-10.32-20.08-15.31-30.2-1.29-2.61-2.81-3.54-5.73-3.47-8.32,.21-16.65,.17-24.97,.02-2.6-.05-3.4,.68-3.35,3.32,.17,7.99,.21,15.98-.01,23.97-.09,3.1,.8,4.19,3.9,3.84,1.34-.15,3.43-1.01,3.51,1.97,.07,2.8-1.48,2.78-3.48,2.77-8.16-.05-16.32-.02-24.48-.02-1.64,0-3.27,.35-3.39-2.32-.14-3.15,1.96-2.7,3.58-2.41,5.1,.9,5.83-1.44,5.77-5.99-.26-19.64-.25-39.29,0-58.93,.06-4.62-.53-7.31-5.96-6.25-1.07,.21-2.87,.78-3.22-1.23-.36-2.12-.41-3.72,2.82-3.64,9.82,.24,19.64,.09,31.41,.09Zm7.71,5.02v-.17c-5.17,0-10.33,.07-15.5-.03-2.01-.04-2.98,.34-2.96,2.69,.12,9.99,.06,19.99,.04,29.99,0,1.45,.04,2.6,2.02,2.54,11.15-.29,22.38,.95,33.44-.6,10.36-1.46,14.47-7.94,13.67-19.57-.61-8.84-6.23-14.27-15.73-14.79-4.98-.27-9.99-.05-14.99-.05Z"/><path class="m" d="M47.79,445.38c14.32,0,28.63,.09,42.95-.07,2.99-.03,3.9,.76,4.15,3.82,.61,7.62,1.81,15.19,2.59,22.8,.13,1.31,1.57,3.44-1.21,3.98-2.46,.48-3.46-.75-4.06-3.09-.78-3.04-2.07-5.94-3.16-8.9-3.11-8.46-9.44-12.87-18.19-13.14-13.81-.42-27.63-.21-41.45-.39-2.23-.03-2.8,.73-2.78,2.85,.09,12.32,.08,24.64,0,36.96-.01,2.1,.54,2.92,2.77,2.87,9.98-.23,19.98-.05,29.95-.53,8.62-.42,11.19-3.25,12.16-11.98,.17-1.55-.03-2.9,2.29-2.88,2.21,.02,2.37,1.17,2.37,2.84-.02,9.99-.04,19.98,.02,29.97,0,1.65-.43,2.45-2.22,2.46-1.58,0-2.42-.29-2.48-2.15-.21-7.41-4.99-10.34-11.53-11.42-10.26-1.7-20.6-.61-30.9-.98-2.09-.07-2.45,.87-2.44,2.67,.05,11.32,.16,22.64-.05,33.96-.07,3.74,2.23,2.74,4.2,2.91,1.91,.17,4.58-1.07,4.56,2.71-.02,3.78-2.72,2.63-4.6,2.65-8.99,.09-17.98,.04-26.97,.03-1.79,0-3.7,.45-3.79-2.51-.1-3.18,1.89-3.17,3.91-2.85,5.19,.83,6.54-1.16,6.48-6.37-.29-25.3-.21-50.61-.05-75.91,.03-3.88-.5-5.95-4.99-5.33-1.76,.24-4.54,1.26-4.56-2.58-.01-3.83,2.67-2.67,4.53-2.67,14.15-.07,28.31-.04,42.46-.04v.32Z"/><path class="e" d="M158.29,544.9c-16.12-.07-29.39-3.1-40.73-12.05-21.66-17.09-20.92-46.01,2.23-60.94,22.32-14.4,46.12-15.13,69.65-3,17.77,9.16,25.88,28.23,20.3,45.21-4.14,12.58-13.55,20.21-25.26,25.29-8.95,3.88-18.39,5.66-26.19,5.48Zm36.66-41.55c.04-19.39-8.83-32.03-25.55-36.29-5.53-1.41-11.2-1.8-16.86-1.31-13.79,1.18-25.58,6.18-30.71,20.04-5.58,15.09-5.33,30.04,5.2,43.4,3.26,4.14,7.83,6.63,12.75,8.43,5.39,1.97,11.02,2.62,16.68,2.69,24.52,.3,38.43-13.11,38.48-36.96Z"/><path class="e" d="M944.93,544.9c-13.97-.07-27.08-3.1-38.33-11.82-21.96-17.01-21.27-46.26,2.09-61.24,22.36-14.34,46.13-15.01,69.64-2.85,17.39,8.99,25.35,27.43,20.41,44.34-2.74,9.38-8.78,16.29-16.86,21.48-11.24,7.22-23.69,10.17-36.95,10.09Zm-37.65-41.11c.4,23.87,14.44,37.04,38.96,36.56,24.99-.5,37.92-13.94,37.49-38.99-.39-23.04-14.98-36.07-39.94-35.69-23.17,.35-36.91,14.7-36.51,38.12Z"/><path class="f" d="M630.79,543.33c-12.5,0-24.99,0-37.49,0-1.9,0-4.13,.64-4-2.72,.13-3.37,2.62-2.13,3.97-1.97,4.21,.49,5.2-1.1,5.16-5.21-.23-20.32-.19-40.65-.02-60.97,.03-3.69-.57-5.62-4.78-5.02-1.9,.27-4.6,.97-4.3-2.78,.29-3.65,3.03-1.9,4.51-1.91,20.79-.15,41.59-.11,62.38-.13,1.98,0,5.21-.14,7.18-.33,5.51-.53,5.52-.03,6.12,6.37,.4,4.31,.95,8.6,1.48,12.9,.15,1.2,.47,2.37-1.2,2.72-1.35,.28-2.22-.15-2.6-1.57-.25-.96-.68-1.87-1.04-2.8-3.24-8.34-8.94-12.75-18.28-12.46-10.49,.32-20.99,.16-31.49,.02-3.24-.04-4.11,.84-3.53,5.51,.83,6.73,.74,13.55,.02,20.29-.46,4.33-.11,5.7,3.18,5.61,7.83-.22,15.67,.04,23.49-.31,7.9-.35,10.17-2.63,11.11-10.42,.21-1.74,.45-2.8,2.53-2.71,1.95,.08,2,1.21,1.99,2.66-.03,8.5-.01,16.99-.02,25.49,0,1.34,.12,2.71-1.87,2.86-2.08,.16-2.56-.97-2.6-2.71-.12-6.03-4-8.3-9.24-9.24-8.77-1.58-17.62-.45-26.43-.82-1.71-.07-2.3,.56-2.29,2.28,.06,10.16,.04,20.32,.02,30.49,0,1.39,.43,2.15,1.97,2.12,13.48-.27,26.98,.59,40.46-.49,6.26-.5,10.38-4.01,13.05-9.47,.73-1.49,1.56-2.95,2.09-4.52,.72-2.11,2.39-1.54,3.73-1.36,2.06,.28,.8,1.77,.66,2.71-.77,4.93-1.75,9.83-2.44,14.77-.39,2.81-1.49,3.69-4.51,3.63-12.32-.24-24.66-.1-36.98-.1v-.38Z"/><path class="e" d="M1093.77,523.08c0-18.35-.03-35.76,.04-53.17,0-2.08-.8-2.59-2.65-2.43-1.32,.11-2.66-.03-3.99,.03-1.78,.07-2.21-.88-2.26-2.47-.05-1.66,.46-2.41,2.22-2.39,5.33,.06,10.66,.07,15.98,0,1.82-.02,2.25,.83,2.2,2.43-.05,1.57-.52,2.74-2.29,2.4-5.49-1.06-5.12,2.34-5.1,6.09,.1,24.12,.05,48.24,.05,73.5-25.74-24.22-50.76-47.76-75.86-71.38-1.7,1.84-1.09,3.58-1.1,5.12-.05,17.65,.09,35.29-.12,52.94-.05,3.86,.9,5.36,4.87,4.91,1.36-.15,3.84-1.37,3.97,1.99,.14,3.4-2.15,2.67-4.01,2.68-4.99,.04-9.99,0-14.99,.02-1.66,0-3.32,.34-3.43-2.3-.1-2.59,1.39-2.79,3.13-2.45,5.82,1.16,6.57-1.62,6.48-6.75-.32-18.97-.12-37.95-.13-56.93,0-5.74-1.15-7.05-6.74-7.37-1.81-.1-3.17-.06-3.22-2.55-.05-2.75,1.67-2.32,3.28-2.32,5.66-.01,11.33,.17,16.98-.08,2.8-.12,4.22,1.58,5.88,3.15,18.88,17.83,37.76,35.67,56.64,53.5,1.15,1.09,2.32,2.14,4.18,3.85Z"/><path class="f" d="M840.06,461.84c11.39,.05,21.85,3.82,32.23,7.96,1.68,.67,2.52,1.68,2.62,3.68,.23,4.82,.82,9.62,1.23,14.43,.09,1.05,.82,2.44-1.12,2.67-1.28,.15-2.3-.12-2.63-1.58-.11-.48-.35-.93-.53-1.4-5.71-14.91-13.69-20.7-29.63-21.22-7-.23-14,.03-20.55,3.02-3.64,1.66-6.63,3.94-6.95,8.34-.33,4.56,2.65,6.95,6.14,8.84,7.85,4.24,16.62,5.69,25.09,8.01,7.21,1.98,14.49,3.82,21.11,7.4,7.32,3.97,12.27,9.49,11.94,18.57-.34,9.2-4.47,15.87-12.63,19.95-8.25,4.12-17.23,5.16-26.25,4.92-10.49-.28-20.83-2.03-30.96-4.98-2.74-.8-4.07-2.14-4.46-5.07-.69-5.1-1.96-10.12-2.72-15.21-.21-1.37-1.75-3.53,.65-4.27,2.34-.72,2.46,1.71,3.04,3.11,4.7,11.29,13.12,18.31,24.9,20.97,10.1,2.28,20.2,1.51,29.91-2.26,5.3-2.06,9.07-5.64,9.25-11.78,.19-6.26-4.23-9.06-9.06-11.24-9.91-4.47-20.74-5.9-31.07-8.99-4.94-1.48-9.85-3-14.32-5.66-13.38-7.96-13.29-24.91,.18-32.82,5.8-3.41,14.89-5.4,24.6-5.39Z"/><path class="f" d="M1153.81,545.6c-10.76-.64-21.62-2.04-32.2-5.22-2.41-.73-3.84-1.74-4.18-4.65-.62-5.44-1.97-10.79-2.85-16.21-.19-1.18-1.95-3.02,.62-3.64,2.01-.49,2.3,1.28,2.87,2.69,4.67,11.46,13.12,18.7,25.11,21.45,9.79,2.25,19.56,1.38,29.02-1.89,5.71-1.97,10-5.7,10.17-12.21,.16-6.36-4.53-9.17-9.59-11.42-7.49-3.33-15.54-4.8-23.4-6.85-7.07-1.84-14.18-3.6-20.68-7.1-6.61-3.56-10.96-8.78-10.77-16.64,.2-8.05,4.2-13.98,11.46-17.34,11.95-5.55,24.44-5.85,37.1-2.94,6.16,1.42,12.1,3.57,17.93,6.03,1.53,.65,3.01,1.24,3.14,3.37,.3,4.98,.82,9.96,1.16,14.94,.07,1,.71,2.47-1.24,2.63-1.35,.11-2.23-.43-2.63-1.74-.05-.16-.07-.33-.13-.48-9.09-20.47-28.76-28.13-49.72-19.33-3.99,1.68-7.45,4.01-7.66,8.89-.19,4.73,3.03,7.05,6.75,8.96,7.78,3.99,16.36,5.43,24.66,7.74,7.36,2.05,14.77,3.95,21.51,7.72,6.83,3.82,11.45,9.11,11.4,17.39-.05,8.86-3.68,15.72-11.55,20.13-8.12,4.55-17.09,5.15-26.32,5.73Z"/><path class="h" d="M769.49,538.53c-4-7.22-7.64-13.68-11.14-20.21-.91-1.69-2.23-1.64-3.74-1.63-14.98,.02-29.97,.04-44.95-.03-2.05-.01-3.35,.48-4.37,2.4-3.36,6.28-6.9,12.46-10.83,19.48,2.43,0,4.3,.1,6.16-.03,1.82-.13,2.27,.67,2.22,2.33-.05,1.53-.27,2.54-2.16,2.51-5.33-.07-10.66-.07-15.98,0-1.78,.03-2.26-.77-2.37-2.38-.15-2.08,.86-2.78,2.66-2.42,3.92,.79,5.39-1.63,7.03-4.59,11.3-20.49,22.76-40.9,34.16-61.35,.87-1.55,1.66-3.15,2.34-4.43-1.97-2.13-6.88,1.83-6.4-3.47,.39-4.28,4.17-1.53,6.35-2.03,11.69-2.67,17.83,2.67,22.98,13.23,9.66,19.82,21.13,38.76,31.69,58.15,1.66,3.05,3.3,5.15,7.15,4.52,1.43-.23,3.41-.74,3.41,2.14,0,3.06-2.03,2.47-3.75,2.49-8.16,.06-16.31,.12-24.47,.08-1.75-.01-4.27,1.02-4.32-2.4-.06-3.61,2.62-2.04,4.27-2.33,.97-.17,1.98-.03,4.08-.03Zm-37.35-67.33c-7.63,13.74-15,26.99-22.51,40.52h44.92c-7.58-13.71-14.84-26.84-22.41-40.52Z"/><path class="f" d="M303.05,491.62c0-7.66-.16-13.66,.06-19.65,.12-3.19-.3-5.09-4.16-4.54-1.78,.25-4.14,.84-4.06-2.6,.08-3.31,2.4-2.1,3.9-2.14,4.49-.14,9,.02,13.49-.08,1.83-.04,2.68,.36,2.63,2.44-.05,2.05-.92,2.76-2.72,2.42-4.62-.88-4.91,1.61-4.88,5.34,.1,12.15,.3,24.34-.38,36.46-1.19,21.12-15.82,34.91-36.93,35.59-5.68,.18-11.33-.16-16.87-1.49-17.45-4.19-27.78-16.89-28.24-35.15-.3-11.99-.23-23.99-.09-35.98,.04-3.39-.31-5.47-4.44-4.79-1.91,.31-4.08,.59-3.91-2.72,.17-3.3,2.53-2.01,4-2.03,8.33-.11,16.66-.09,24.99-.02,1.39,.01,3.42-.98,3.48,2.02,.06,2.74-1.33,3.15-3.37,2.77-4.99-.95-6.02,1.23-5.78,5.89,.66,13.29-.87,26.66,.88,39.92,2.29,17.38,11.38,26.27,27.18,27,16.67,.78,30.34-9.3,34-24.94,1.97-8.4,.8-16.92,1.2-23.72Z"/><path class="o" d="M595.08,101.5l-.24-6.83c8.89-3.13,16.84-8.19,25.2-12.41,.68-.34,.54-1.07-.18-1.5h.03c3.22,1.15,5.14-1.04,7.07-3.17,2.06,3.25-.43,4.06-2.17,5.09-7.99,4.74-15.98,9.45-24.02,14.1-2.19,1.26-4.17,2.69-5.68,4.72Z"/><path class="q" d="M518.74,158.74c-.26,.02-.52,.02-.77,.02,.43-5.38,8.06-12.85,13.71-13.72,2.63-.4,2.29,.88,1.89,2.51-1.36,5.57-6.05,9.51-12.2,9.94-1.19,.08-2.28-.33-2.64,1.25Z"/><path class="i" d="M591.03,79.85c1.13,1.39,1.18,2.71-.24,3.94-8.58-.82-12.14-4.02-13.74-12.66,5.37,.37,9.57,2.3,12.22,7.14,.34,.62,.14,2.25,1.76,1.59Z"/><path class="m" d="M698.92,321.37c-8.03-1.16-12.2-4.34-13.22-9.63-.47-2.47,.12-3.31,2.73-2.84,6.06,1.09,9.71,5.19,10.49,12.46Z"/><path class="m" d="M696.78,257.11c6.23,.66,10.97,2.88,12.88,8.99,.8,2.55,.53,4.18-2.94,3.38-5.97-1.37-9.44-5.39-9.94-12.37Z"/><path class="k" d="M715.74,307.51c.2,1.9-.43,2.78-2.49,1.72-.44-.23-.92-.38-1.37-.59-5.27-2.53-8.5-8.03-7.38-12.31,.34-1.29,.74-1.39,2.01-1.1,5.02,1.12,9.39,6.76,9.23,12.28Z"/><path class="o" d="M522.2,178.7l.28,.12c.12,6.91-3.74,11.89-10.07,13.48-3.51,.88-3.64-.42-2.73-3.18,1.43-4.3,4.37-6.9,8.55-8.39,1.38-.49,3.47,.23,3.97-2.03Z"/><path class="q" d="M635.8,186.72c-5.22-5.07-4.45-12.08,1.98-17.93,3.78,5.62,3.57,8.84-1.08,16.98l.15-.06c-.86-.12-1.36,.13-1.12,1.12l.07-.1Z"/><path class="q" d="M675.81,206.16c6.91-.04,11.47,3.28,13.29,9.08,1.02,3.24-.15,3.34-2.78,2.76-6.42-1.41-9.19-5.89-10.51-11.84Z"/><path class="k" d="M541.04,189.7l1.31,.98c-.56,6.72-3.98,11.48-9.37,12.88-1.23,.32-2.79,1.02-3.77,.09-1.1-1.05-.02-2.42,.4-3.63,1.61-4.69,5.24-6.96,9.77-8.18,1.08-.29,3.11,.13,1.67-2.14Z"/><path class="q" d="M669.77,275.74c6.58,.75,11.2,3.12,13.3,9.25,.97,2.82,.91,4.02-2.64,3.17-6.35-1.52-9.2-5.89-10.66-12.42Z"/><path class="m" d="M652.03,149.15c7.13,.44,11.92,4.15,13.01,9.79,.4,2.08,.05,2.63-2.14,2.34-5.83-.76-9.92-5.2-10.86-12.13Z"/><path class="o" d="M584.2,150.83c.62-.16,1.17-.08,1.53,.53-1.73,.9-1.47,2.8-2.1,4.24-2.4,5.41-6.39,7.93-12.63,7.77,.85-7.98,6.2-11.12,13.21-12.53Z"/><path class="q" d="M723.75,229.8c.82,6.7-.78,11.7-6.43,14.95-2.73,1.57-3.53,.52-3.41-2.18,.29-6.34,3.7-10.31,9.84-12.77Z"/><path class="q" d="M541.01,181.76c.53-7.77,4.13-11.31,12.93-12.73-.08,7.48-4.34,11.58-13.09,12.58l.16,.15Z"/><path class="n" d="M621.07,206.03c7.79,.16,11.75,3.62,13.26,11.59-7.4,.65-11.91-3.28-13.26-11.59Z"/><path class="o" d="M664.75,324.34c-.13,4.59-1.74,8.45-5.65,11.07-.88,.59-1.96,1.92-2.98,1.1-.72-.58-.93-2.09-.97-3.19-.17-4.67,1.81-8.35,5.55-11.08,.9-.66,1.79-1.89,3-1.4,1.58,.63,.74,2.31,1.04,3.52Z"/><path class="m" d="M563.25,137.72c.82,.53,1.64,1.05,2.46,1.58-1.69,2.55-1.93,5.8-4.04,8.16-2.44,2.75-5.39,4.37-9.1,4.45-.67,.01-1.44-.19-1.3-1.06,.62-3.76,2.26-7,5.66-8.94,1.7-.97,3.63-1.6,5.53-2.14,1.42-.4,1.46-1.02,.79-2.06Z"/><path class="n" d="M574.95,144.77c.23-.06,.43,0,.6,.17-1.63,2.8-1.99,6.23-4.32,8.68-2.76,2.91-5.99,4.58-10.18,3.95,.82-8.63,6.9-11.22,13.9-12.8Z"/><path class="m" d="M551.15,195.66c1.12,.1,1.94,.71,2.57,1.6-2.29-.37-1.58,1.55-1.93,2.59-1.5,4.45-4,7.91-8.72,9.33-1.41,.42-3.18,1.33-4.14,.1-.87-1.12,.15-2.78,.73-4.15,1.75-4.15,5.06-6.32,9.26-7.42,1.05-.28,2.95,.22,2.23-2.05Z"/><path class="n" d="M502.73,149.26c7.01,.56,11.55,3.89,12.9,9.37,.6,2.45,.06,3.3-2.67,2.71-5.94-1.3-9.57-5.42-10.22-12.08Z"/><path class="q" d="M684.59,155.29c-1.24,8.34-5.41,12.14-13.05,12.23,.67-7.59,4.1-10.9,13.05-12.23Z"/><path class="o" d="M552.99,125.82c.39-7.95,5-12.33,13.3-12.63-1.58,8.27-4.39,10.89-13.45,12.5l.14,.13Z"/><path class="o" d="M564.44,174.64c-.97,8.04-5.86,12.35-13.26,11.7,1.66-8.18,5.18-11.28,13.26-11.7Z"/><path class="n" d="M582.12,94.72l.41,.19c-.19,8.57-5.11,13.62-13.23,13.58,.75-6.61,3.55-9.91,9.77-11.76,1.15-.34,3.26,.48,3.05-2.01Z"/><path class="o" d="M532.32,184.71h.02c.1,6.8-4,11.97-10.15,13.28-3.54,.76-3.59-.48-2.61-3.26,1.43-4.06,4.14-6.58,8.09-8.13,1.55-.61,3.61-.06,4.65-1.89Z"/><path class="o" d="M647.2,105.94c-1.09-6.91,1.07-11.72,6.42-14.59,1.8-.96,2.91-1.46,3.1,1.4,.4,6.2-3.27,11.43-9.52,13.18Z"/><path class="q" d="M626.79,314.83c.13,1.88-1.05,1.58-2.26,1.45-5.23-.54-10.16-5.31-11-10.58-.17-1.05-.58-1.79,1.04-1.94,4.78-.44,12.53,6.51,12.22,11.07Z"/><path class="q" d="M523.09,106.76c6.6,.8,11.15,3.19,13.22,9.15,.95,2.74,.9,4.09-2.72,3.22-6.39-1.53-9.14-5.93-10.5-12.37Z"/><path class="k" d="M502.06,161.81c4.68-.27,11.43,5.7,11.76,10.36,.09,1.3,.09,2.08-1.73,2.06-4.89-.05-11.03-5.72-11.46-10.7-.11-1.28,.03-1.9,1.42-1.72Z"/><path class="q" d="M574.98,64.94c-.91,7.17-4.47,11.1-10.38,12.34-2.88,.6-3.16-.42-2.55-2.76,1.34-5.17,5.23-8.15,12.93-9.58Z"/><path class="m" d="M663.04,109.93c-1.1,6.85-5.13,11.24-10.67,11.9-2.39,.28-2.91-.45-2.33-2.7,1.45-5.62,6.48-9.24,13-9.2Z"/><path class="o" d="M563.03,130.56c1.62-7.53,5.27-11.22,11.34-12.16,2.22-.34,2.58,.08,2.05,2.21-1.53,6.09-6.05,9.66-13.39,9.96Z"/><path class="h" d="M626.05,66.25c.4,2.35-.85,2.17-2.59,1.67-4.87-1.4-8.68-6.29-8.97-11.29-.11-1.89,.31-2.3,2.14-1.91,4.81,1.02,9.46,6.56,9.41,11.53Z"/><path class="q" d="M663.49,297.29c-7.4,.53-11.83-3.32-13.45-11.7,7.86,.03,11.81,3.47,13.45,11.7Z"/><path class="n" d="M618.77,196.33c-.14,.2-.31,.36-.53,.47-4.99-6.86-4.36-12.61,2.29-19.06,3.87,5.72,2.59,11.11-.6,16.45l-.11-.03c-.77,.52-2.11,.76-1.05,2.17Z"/><path class="q" d="M572.06,197.84c-.08-7.71,4.6-12.28,13.07-12.76-1.31,8.08-3.96,10.61-13.22,12.63,0,0,.15,.13,.15,.13Z"/><path class="q" d="M696.61,234.69c6.35,.73,10.82,3.27,12.88,9.08,.9,2.52,.86,4.12-2.76,3.24-5.63-1.37-8.99-5.08-10.12-12.31Z"/><path class="n" d="M520.73,169.66s.08,.17,.08,.17c1.2-7.54,4.65-10.66,12.93-11.7-.41,8.01-6.34,13.27-13.01,11.54Z"/><path class="k" d="M689.88,203.67c.35,1.43-.13,1.97-1.76,1.92-4.9-.17-11.27-6.15-11.4-10.84-.03-1.13,.04-1.74,1.55-1.71,4.97,.11,11.38,5.82,11.62,10.63Z"/><path class="n" d="M582.91,215.98c-2.17,5.21-4.07,10.67-10.67,11.85-1.06,.19-2.38,1.13-3.22-.03-.71-.97-.1-2.21,.3-3.32,2-5.66,7.08-8.8,13.69-8.4,0,0-.09-.09-.09-.09Z"/><path class="n" d="M643.47,110.67c-6.59-1.32-10.04-5.17-11.34-11.29-.61-2.88,.43-3.12,2.77-2.32,5.8,1.96,8.97,6.82,8.56,13.62Z"/><path class="h" d="M561.95,84.73s-.23-.09-.24-.09c1.87,3.83-.9,6.28-2.85,8.79-2.04,2.62-5.11,3.71-8.36,3.74-2.09,.02-1.09-1.61-.85-2.56,1.6-6.38,6.31-8.94,12.31-9.88Z"/><path class="m" d="M543.12,119.94c-.42-6.37,5.11-12.41,11.11-12.42,2.54,0,1.7,1.41,1.44,2.55-1.26,5.68-5.96,9.23-12.73,9.72,0,0,.17,.15,.17,.15Z"/><path class="m" d="M602.57,151.68c6.23,.69,10.65,3.07,12.74,8.72,.38,1.04,.77,2.49,.33,3.31-.65,1.23-2.12,.3-3.17,.1-5.42-1.05-8.67-4.96-9.9-12.13Z"/><path class="o" d="M642.67,63.02c-1.48,6.2-4.28,10.7-10.76,11.99-3.1,.62-3.41-.31-2.49-3.03,1.9-5.62,5.94-8.57,13.25-8.96Z"/><path class="h" d="M573.37,208.77h.05c-2.1,3.07-2.05,7.29-5.25,9.75-2.66,2.05-6.6,4.94-8.69,2.68-1.98-2.14,1.18-5.89,3.5-8.31,2.84-2.97,6.92-2.78,10.39-4.12Z"/><path class="k" d="M571.7,51.86c.25,7.63-2.33,12.17-7.49,14.39-2.61,1.12-3.37,.3-3.11-2.24,.65-6.39,4.4-10.09,10.61-12.15Z"/><path class="n" d="M539.54,105.82c-7.19-1.3-10.38-5.7-10.4-14.35,7.42,1.24,11.12,6.34,10.4,14.35Z"/><path class="m" d="M710.96,214.43c-1.19,6.97-4.6,10.98-9.91,12.16-2.86,.63-4.17,0-2.99-3.17,2.16-5.77,6.4-8.55,12.89-8.99Z"/><path class="q" d="M591.86,39l-.07,2.82c-6.36-.61-11.45-3.03-13.5-9.64-.28-.9-.68-2.12-.31-2.79,.57-1.01,1.75-.16,2.68-.04,5.89,.73,8.24,5.54,11.2,9.65Z"/><path class="j" d="M554.52,133.52c-.08,5.74-3.33,10.53-8.37,12.03-1.35,.4-3.16,1.35-4.22,.22-1.06-1.13-.08-2.79,.51-4.15,2.34-5.34,6.81-7.4,12.25-7.94,0,0-.16-.16-.16-.16Z"/><path class="o" d="M553.62,78.35c-5.1-.74-9.66-4.98-10.69-9.9-.25-1.21-.93-2.64,1.54-2.47,4.82,.34,10.38,4.99,11.33,9.73,.38,1.91,.43,3.47-2.18,2.64Z"/><path class="k" d="M640.88,196.52c5.11,.69,9.43,4.42,10.72,9.13,.58,2.12,.57,3.5-2.36,2.98-4.81-.85-9.57-5.34-10.49-10.01-.41-2.11,.14-2.84,2.13-2.11Z"/><path class="f" d="M510.25,133.83c5.34,2.81,8.97,6.62,8.69,13.16-.12,2.81-.79,3.6-3.45,1.95-4.99-3.09-6.9-8.24-5.23-15.11Z"/><path class="k" d="M559.24,102.77c1.61-8.18,5.18-11.37,13.07-11.92-.56,7.64-4.93,11.76-13.07,11.92Z"/><path class="k" d="M548.11,53.74c6.26,1.57,9.92,5.82,10.19,11.68,.13,2.67-.43,3.71-3.28,2.3-5.12-2.52-7.58-7.25-6.91-13.99Z"/><path class="k" d="M696.99,205.59c-2.06,.09-1.4-1.34-1.27-2.38,.6-4.84,6.49-9.95,11.45-10.15,1.39-.06,1.68,.34,1.67,1.59-.04,4.67-7.33,11.44-11.85,10.94Z"/><path class="q" d="M544.26,127.52c.94,6.26-4.83,13-10.96,12.93-2.95-.04-1.66-2.07-1.37-3.1,1.77-6.25,6.69-8.6,12.5-9.71-.01,0-.17-.11-.17-.11Z"/><path class="m" d="M550.11,217.53c1.56-.42,2.19,.15,1.76,1.77-.17,.64-.36,1.27-.59,1.89-1.86,4.94-7.31,9.02-11.16,8.62-1.51-.16-1.42-.88-1.35-1.95,.29-4.72,6.23-10.17,11.35-10.32Z"/><path class="f" d="M562.14,193.16c-1.1-6.51,3.92-12.76,10.57-13.42,2.45-.24,2.46,.87,1.89,2.56-1.57,4.67-4.42,8.05-9.35,9.44-1.08,.3-2.71-.55-3.14,1.32,0,.01,.03,.1,.03,.1Z"/><path class="h" d="M531.14,177.08c-.81-7.48,3.93-12.45,12.52-13.15-.3,6.32-3.65,10.43-9.6,11.9-1.03,.25-2.43-.33-2.99,1.15,.01,.01,.08,.11,.08,.11Z"/><path class="m" d="M589.77,69.53c-7.89-1.15-11.21-4.43-12.3-12.41,5.76,.73,10.5,2.57,12.31,8.69v3.71Z"/><path class="h" d="M586.77,125.49c-.37,4.56-5.99,9.91-10.72,10.35-1.9,.18-2.71-.14-2.34-2.33,.79-4.62,6.45-9.65,11.19-9.84,1.45-.06,2.28,.13,1.87,1.81Z"/><path class="q" d="M590.77,55.33c-7.87-.35-11.67-3.74-13.18-11.74,6.03-.35,9.33,1.65,12.15,7.38,.34,1.45,.69,2.91,1.03,4.36Z"/><path class="f" d="M590.69,27.22c-7.77-.68-10.87-3.53-12.79-11.77,6.8-.24,10.73,2.59,12.91,9.3-.04,.82-.08,1.64-.12,2.47Z"/><path class="k" d="M636.85,50.31c-.2,1.1-.37,2.24-.63,3.36-.84,3.6-3.09,6.13-6.23,7.92-.86,.49-1.69,.19-1.91-.8-.81-3.68-.53-7.23,1.75-10.39,.58-.8,1.18-1.64,1.96-2.22,1.22-.92,2.19-3.02,4-2.06,1.42,.75,.66,2.73,1.07,4.19Z"/><path class="f" d="M651.59,275.8c-4.84-.44-9.84-5.19-10.74-9.93-.33-1.71-.02-2.36,1.91-2.21,4.65,.36,9.98,4.88,10.99,9.46,.46,2.08,.14,3.28-2.17,2.67Z"/><path class="k" d="M619.88,80.77h-.03c-6.13-.6-10.15-3.92-11.65-9.56-.35-1.3-1.06-2.51,1.36-2.51,5.2,0,11.43,5.79,11.58,11.03,.02,.78-.47,1.14-1.25,1.05Z"/><path class="k" d="M590.76,13.26c-7.86-1.02-10.71-3.72-12.81-12.49,6.09,.75,10.86,2.8,12.92,8.95-.03,.36-.05,.72-.08,1.08-.01,.82-.03,1.64-.04,2.46Z"/><path class="p" d="M590.69,27.22c.04-.82,.08-1.64,.12-2.47,2.26-1.7-.14-4.7,2.12-6.94,1.48,3.48,.83,6.78,.74,10.01l-1.86-.03-1.12-.57Z"/><path class="d" d="M590.8,10.8c.03-.36,.05-.72,.08-1.08,2.26-2.66-.21-6.29,2.11-9.72,1.25,2.97,.79,5.45,.63,7.9-1.18,.73-.55,3.23-2.82,2.9Z"/><path class="l" d="M590.8,10.8c2.27,.33,1.64-2.17,2.82-2.9,.06,1.66,.16,3.31,.16,4.97,0,.94,.38,2.34-.78,2.6-1.44,.33-1.11-1.82-2.24-2.21,.01-.82,.03-1.64,.04-2.46Z"/><path class="i" d="M590.77,55.33c-.34-1.45-.69-2.91-1.03-4.36,2.48,.92,1.36-1.48,2.04-2.22-.05,2.47-.09,4.93-.14,7.4-.29-.27-.58-.55-.87-.82Z"/><path class="i" d="M589.77,69.53v-3.71l1.65,.18c.64,1.3,.91,2.56-.35,3.68l-1.3-.15Z"/><path class="g" d="M635.73,186.82c-.25-.99,.25-1.23,1.12-1.12,.63,1.37-.26,1.22-1.12,1.12Z"/><path class="g" d="M618.77,196.33c-1.06-1.41,.28-1.65,1.05-2.17,1.21,1.48-.53,1.53-1.05,2.17Z"/></g></g></g></svg>