<?xml version="1.0" encoding="UTF-8"?><svg xmlns="http://www.w3.org/2000/svg" viewBox="0 0 1191.68 103.69"><defs><style>.d{fill:#282827;}.e{fill:#2b2b2a;}.f{fill:#fff;}.g{fill:#2d2d2c;}.h{fill:#2a2a29;}.i{fill:#2e2e2d;}</style></defs><g id="a"/><g id="b"><g id="c"><g><path class="f" d="M525.8,.02c-6.54,0-13.96,.7-21.15,3.13-12.38,4.19-19.2,12.11-19.71,23-.49,10.3,5.31,17.86,17.81,23.21,9.82,4.21,20.29,6.22,30.56,8.93,8.34,2.19,16.88,3.92,24.18,8.87,7.85,5.31,8.56,14.74,1.71,21.3-3.08,2.96-6.89,4.56-10.9,5.8-6.27,1.93-12.75,2.35-19.23,2.57-20.19,.71-36.17-9.45-44.1-27.96-.26-.61-.4-1.27-.7-1.86-.66-1.32-1.92-1.19-3.05-1.01-1.98,.32-.99,1.67-.8,2.7,1.4,7.52,2.97,15,4.14,22.56,.4,2.62,1.58,3.57,3.92,4.28,13.94,4.25,28.18,6.74,42.73,6.47,10.67-.19,21.13-1.83,30.76-7.18,14.97-8.33,20.12-34.37,.01-45.08-4.12-2.19-8.26-4.29-12.75-5.57-10.54-3-21.12-5.83-31.66-8.84-5.91-1.69-11.85-3.45-16.8-7.31-5.95-4.65-5.9-11.79-.04-16.55,2.37-1.92,5.1-3.19,7.98-3.98,9.27-2.57,18.73-2.98,28.21-1.68,14.82,2.03,24.38,10.46,29.11,24.54,.26,.79,.61,1.55,.79,2.36,.47,2.16,2.07,2.53,3.82,2.2,2-.38,1.11-2.13,1.02-3.23-.5-6.14-1.21-12.26-1.71-18.39-.14-1.71-.72-2.67-2.34-3.35-13.1-5.45-26.31-10.34-41.81-9.93Zm-169.71,19.26c-11.77,0-21.59,.15-31.41-.09-3.23-.08-3.19,1.52-2.82,3.64,.34,2.01,2.15,1.44,3.22,1.23,5.43-1.06,6.02,1.63,5.96,6.25-.24,19.64-.25,39.29,0,58.93,.06,4.55-.67,6.89-5.77,5.99-1.62-.29-3.72-.74-3.58,2.41,.12,2.66,1.75,2.32,3.39,2.32,8.16,0,16.32-.03,24.48,.02,1.99,.01,3.55,.03,3.48-2.77-.08-2.97-2.17-2.11-3.51-1.97-3.1,.34-3.98-.74-3.9-3.84,.22-7.98,.18-15.98,.01-23.97-.06-2.64,.75-3.37,3.35-3.32,8.32,.15,16.65,.19,24.97-.02,2.91-.07,4.44,.85,5.73,3.47,5,10.12,10.35,20.06,15.31,30.2,1.54,3.14,3.46,4.26,6.9,4.05,4.81-.3,9.66,.08,14.48-.16,1.56-.08,4.2,1.62,4.55-1.97,.34-3.39-2.24-2.75-3.93-2.95-5.66-.68-9.43-3.61-11.74-8.77-3.12-6.96-6.17-13.98-9.7-20.73-1.89-3.61-1.73-4.89,2.49-6.35,8.97-3.11,13.66-10.37,13.46-19.5-.21-9.18-5.01-15.22-13.34-18.62-3.08-1.26-6.3-2.04-9.6-2.55-11.44-1.75-22.95-.47-32.47-.92ZM47.79,2.02v-.32c-14.15,0-28.31-.03-42.46,.04-1.86,0-4.55-1.15-4.53,2.67,.01,3.85,2.79,2.82,4.56,2.58,4.49-.61,5.02,1.46,4.99,5.33-.17,25.3-.25,50.61,.05,75.91,.06,5.21-1.29,7.2-6.48,6.37-2.02-.32-4.01-.33-3.91,2.85,.09,2.96,2,2.51,3.79,2.51,8.99,.01,17.98,.05,26.97-.03,1.88-.02,4.58,1.14,4.6-2.65,.02-3.77-2.65-2.54-4.56-2.71-1.98-.18-4.28,.83-4.2-2.91,.22-11.32,.1-22.64,.05-33.96,0-1.8,.35-2.74,2.44-2.67,10.3,.36,20.64-.72,30.9,.98,6.54,1.08,11.32,4.02,11.53,11.42,.05,1.86,.9,2.16,2.48,2.15,1.78,0,2.22-.81,2.22-2.46-.05-9.99-.04-19.98-.02-29.97,0-1.67-.16-2.82-2.37-2.84-2.32-.02-2.12,1.32-2.29,2.88-.97,8.74-3.55,11.57-12.16,11.98-9.97,.48-19.97,.3-29.95,.53-2.24,.05-2.79-.76-2.77-2.87,.08-12.32,.08-24.64,0-36.96-.01-2.13,.55-2.88,2.78-2.85,13.82,.17,27.64-.03,41.45,.39,8.75,.26,15.08,4.68,18.19,13.14,1.09,2.96,2.37,5.86,3.16,8.9,.6,2.34,1.6,3.57,4.06,3.09,2.77-.54,1.34-2.67,1.21-3.98-.78-7.61-1.98-15.18-2.59-22.8-.24-3.06-1.16-3.85-4.15-3.82-14.32,.16-28.63,.07-42.95,.07Zm110.5,99.53c7.81,.18,17.24-1.6,26.19-5.48,11.71-5.08,21.13-12.71,25.26-25.29,5.58-16.98-2.53-36.05-20.3-45.21-23.53-12.13-47.33-11.4-69.65,3-23.15,14.93-23.9,43.85-2.23,60.94,11.34,8.94,24.61,11.98,40.73,12.05Zm786.65,0c13.26,.08,25.71-2.87,36.95-10.1,8.08-5.19,14.12-12.11,16.86-21.48,4.94-16.9-3.03-35.34-20.41-44.34-23.51-12.16-47.29-11.49-69.64,2.85-23.36,14.99-24.05,44.23-2.09,61.24,11.26,8.72,24.36,11.75,38.33,11.82Zm-314.14-1.57v.38c12.33,0,24.66-.14,36.98,.1,3.01,.06,4.11-.82,4.51-3.63,.69-4.94,1.66-9.84,2.44-14.77,.15-.93,1.41-2.43-.66-2.71-1.34-.18-3.01-.75-3.73,1.36-.53,1.56-1.36,3.02-2.09,4.52-2.67,5.46-6.79,8.97-13.05,9.47-13.47,1.08-26.97,.22-40.46,.49-1.54,.03-1.97-.73-1.97-2.12,.02-10.16,.04-20.33-.02-30.49-.01-1.72,.58-2.35,2.29-2.28,8.81,.37,17.66-.76,26.43,.82,5.24,.95,9.12,3.22,9.24,9.24,.03,1.75,.51,2.87,2.6,2.71,1.99-.15,1.87-1.52,1.87-2.86,0-8.5-.01-16.99,.02-25.49,0-1.46-.04-2.58-1.99-2.66-2.08-.09-2.32,.97-2.53,2.71-.94,7.79-3.22,10.08-11.11,10.42-7.82,.34-15.66,.09-23.49,.31-3.29,.09-3.65-1.28-3.18-5.61,.72-6.75,.81-13.56-.02-20.29-.58-4.67,.3-5.55,3.53-5.51,10.5,.14,21,.3,31.49-.02,9.34-.29,15.04,4.12,18.28,12.46,.36,.93,.79,1.84,1.04,2.8,.38,1.42,1.25,1.86,2.6,1.57,1.66-.35,1.35-1.52,1.2-2.72-.54-4.29-1.08-8.59-1.48-12.9-.6-6.4-.61-6.89-6.12-6.37-1.97,.19-5.2,.33-7.18,.33-20.79,.02-41.59-.01-62.38,.13-1.48,.01-4.21-1.74-4.51,1.91-.3,3.76,2.4,3.06,4.3,2.78,4.21-.6,4.81,1.33,4.78,5.02-.17,20.32-.2,40.65,.02,60.97,.05,4.11-.94,5.71-5.16,5.21-1.35-.16-3.84-1.4-3.97,1.97-.13,3.35,2.1,2.71,4,2.72,12.5,.02,24.99,0,37.49,0Zm462.98-20.25c-1.85-1.71-3.03-2.76-4.18-3.85-18.88-17.83-37.75-35.67-56.64-53.5-1.66-1.57-3.08-3.27-5.88-3.15-5.65,.24-11.32,.06-16.98,.08-1.61,0-3.33-.42-3.28,2.32,.05,2.5,1.42,2.45,3.22,2.55,5.59,.32,6.74,1.63,6.74,7.37,0,18.98-.19,37.96,.13,56.93,.09,5.13-.67,7.9-6.48,6.75-1.75-.35-3.24-.14-3.13,2.45,.11,2.64,1.77,2.3,3.43,2.3,5,0,9.99,.02,14.99-.02,1.86-.02,4.15,.72,4.01-2.68-.13-3.35-2.61-2.14-3.97-1.99-3.97,.45-4.91-1.06-4.87-4.91,.21-17.64,.07-35.29,.12-52.94,0-1.55-.6-3.28,1.1-5.12,25.1,23.62,50.12,47.16,75.86,71.38,0-25.26,.05-49.38-.05-73.5-.02-3.75-.38-7.15,5.1-6.09,1.77,.34,2.24-.83,2.29-2.4,.05-1.61-.37-2.46-2.2-2.43-5.33,.07-10.66,.06-15.98,0-1.76-.02-2.27,.73-2.22,2.39,.05,1.59,.48,2.55,2.26,2.47,1.33-.05,2.67,.09,3.99-.03,1.85-.16,2.66,.36,2.65,2.43-.07,17.41-.04,34.82-.04,53.17Zm-253.72-61.23c-9.7,0-18.8,1.98-24.6,5.39-13.46,7.91-13.56,24.86-.18,32.82,4.47,2.66,9.38,4.18,14.32,5.66,10.33,3.09,21.15,4.53,31.07,8.99,4.83,2.18,9.25,4.98,9.06,11.24-.19,6.14-3.95,9.72-9.25,11.78-9.71,3.77-19.81,4.54-29.91,2.26-11.78-2.66-20.2-9.68-24.9-20.97-.58-1.4-.7-3.83-3.04-3.11-2.4,.74-.86,2.9-.65,4.27,.77,5.09,2.04,10.11,2.72,15.21,.39,2.93,1.73,4.27,4.46,5.07,10.12,2.95,20.46,4.7,30.96,4.98,9.02,.24,18-.8,26.25-4.92,8.16-4.08,12.29-10.75,12.63-19.95,.34-9.08-4.61-14.6-11.94-18.57-6.62-3.59-13.89-5.43-21.11-7.4-8.47-2.32-17.24-3.77-25.09-8.01-3.49-1.88-6.47-4.28-6.14-8.84,.32-4.4,3.31-6.68,6.95-8.34,6.55-2.99,13.55-3.24,20.55-3.02,15.94,.51,23.92,6.31,29.63,21.22,.18,.47,.42,.92,.53,1.4,.33,1.46,1.35,1.73,2.63,1.58,1.94-.23,1.21-1.62,1.12-2.67-.41-4.81-1-9.61-1.23-14.43-.1-2-.94-3.01-2.62-3.68-10.37-4.14-20.84-7.92-32.23-7.96Zm313.76,83.75c9.23-.58,18.2-1.18,26.32-5.73,7.87-4.41,11.5-11.27,11.55-20.13,.05-8.28-4.56-13.57-11.4-17.39-6.75-3.77-14.15-5.66-21.51-7.72-8.3-2.32-16.88-3.75-24.66-7.74-3.72-1.91-6.95-4.23-6.75-8.96,.2-4.88,3.66-7.22,7.66-8.89,20.96-8.8,40.63-1.13,49.72,19.33,.07,.15,.08,.32,.13,.48,.39,1.3,1.27,1.85,2.63,1.74,1.95-.16,1.31-1.62,1.24-2.63-.35-4.98-.86-9.95-1.16-14.94-.13-2.13-1.61-2.72-3.14-3.37-5.82-2.46-11.76-4.61-17.93-6.03-12.66-2.92-25.14-2.61-37.1,2.94-7.26,3.37-11.26,9.3-11.46,17.34-.2,7.86,4.15,13.07,10.77,16.64,6.5,3.5,13.61,5.26,20.68,7.1,7.87,2.05,15.91,3.51,23.4,6.85,5.06,2.25,9.75,5.06,9.59,11.42-.17,6.51-4.46,10.23-10.17,12.21-9.46,3.27-19.23,4.14-29.02,1.89-12-2.75-20.44-9.99-25.11-21.45-.57-1.41-.87-3.17-2.87-2.69-2.57,.62-.81,2.47-.62,3.64,.88,5.42,2.22,10.77,2.85,16.21,.33,2.92,1.76,3.93,4.18,4.65,10.59,3.18,21.45,4.58,32.2,5.22Zm-384.32-7.06c-2.09,0-3.11-.14-4.08,.03-1.65,.29-4.33-1.28-4.27,2.33,.06,3.43,2.57,2.39,4.32,2.4,8.16,.05,16.31-.01,24.47-.08,1.73-.01,3.76,.57,3.75-2.49,0-2.88-1.99-2.37-3.41-2.14-3.86,.63-5.49-1.47-7.15-4.52-10.56-19.39-22.03-38.33-31.69-58.15-5.15-10.55-11.29-15.9-22.98-13.23-2.17,.5-5.96-2.25-6.35,2.03-.48,5.3,4.44,1.34,6.4,3.47-.67,1.28-1.47,2.87-2.34,4.43-11.4,20.44-22.86,40.85-34.16,61.35-1.63,2.96-3.1,5.37-7.03,4.59-1.8-.36-2.81,.34-2.66,2.42,.11,1.61,.59,2.4,2.37,2.38,5.33-.08,10.66-.08,15.98,0,1.89,.02,2.11-.98,2.16-2.51,.05-1.66-.39-2.46-2.22-2.33-1.85,.13-3.73,.03-6.16,.03,3.92-7.02,7.47-13.2,10.83-19.48,1.02-1.92,2.32-2.41,4.37-2.4,14.98,.08,29.97,.05,44.95,.03,1.51,0,2.84-.05,3.74,1.63,3.5,6.53,7.14,12.99,11.14,20.21ZM303.05,48.26c-.4,6.8,.76,15.32-1.2,23.72-3.66,15.65-17.34,25.72-34,24.94-15.79-.74-24.89-9.62-27.18-27-1.75-13.26-.21-26.63-.88-39.92-.23-4.67,.79-6.84,5.78-5.89,2.04,.39,3.43-.03,3.37-2.77-.07-3-2.1-2.01-3.48-2.02-8.33-.07-16.66-.1-24.99,.02-1.47,.02-3.83-1.27-4,2.03-.17,3.31,2,3.03,3.91,2.72,4.12-.68,4.48,1.41,4.44,4.79-.15,11.99-.22,23.99,.09,35.98,.46,18.27,10.79,30.96,28.24,35.15,5.54,1.33,11.19,1.68,16.87,1.49,21.11-.68,35.74-14.47,36.93-35.59,.68-12.12,.48-24.31,.38-36.46-.03-3.73,.26-6.22,4.88-5.34,1.8,.34,2.67-.37,2.72-2.42,.05-2.09-.8-2.48-2.63-2.44-4.5,.1-9-.06-13.49,.08-1.5,.05-3.82-1.17-3.9,2.14-.08,3.44,2.28,2.85,4.06,2.6,3.86-.55,4.28,1.34,4.16,4.54-.23,5.99-.06,11.99-.06,19.65Z"/><path class="d" d="M525.8,.02c15.49-.42,28.71,4.48,41.81,9.93,1.62,.67,2.2,1.64,2.34,3.35,.5,6.14,1.21,12.26,1.71,18.39,.09,1.1,.98,2.85-1.02,3.23-1.74,.33-3.34-.04-3.82-2.2-.18-.8-.52-1.57-.79-2.36-4.73-14.08-14.29-22.51-29.11-24.54-9.48-1.3-18.94-.88-28.21,1.68-2.88,.8-5.62,2.06-7.98,3.98-5.86,4.76-5.91,11.9,.04,16.55,4.94,3.86,10.89,5.62,16.8,7.31,10.53,3.01,21.12,5.84,31.66,8.84,4.49,1.28,8.63,3.38,12.75,5.57,20.1,10.71,14.96,36.75-.01,45.08-9.62,5.35-20.08,6.99-30.76,7.18-14.56,.26-28.8-2.22-42.73-6.47-2.33-.71-3.51-1.66-3.92-4.28-1.16-7.55-2.74-15.04-4.14-22.56-.19-1.02-1.18-2.37,.8-2.7,1.14-.19,2.39-.32,3.05,1.01,.3,.59,.44,1.25,.7,1.86,7.93,18.51,23.91,28.67,44.1,27.96,6.49-.23,12.97-.65,19.23-2.57,4.01-1.23,7.82-2.84,10.9-5.8,6.84-6.57,6.14-15.99-1.71-21.3-7.31-4.94-15.85-6.67-24.18-8.87-10.27-2.7-20.73-4.71-30.56-8.93-12.49-5.36-18.29-12.91-17.81-23.21,.51-10.89,7.33-18.82,19.71-23C511.84,.72,519.26,.01,525.8,.02Z"/><path class="h" d="M356.09,19.29c9.52,.45,21.03-.83,32.47,.92,3.31,.51,6.53,1.29,9.6,2.55,8.33,3.4,13.14,9.44,13.34,18.62,.21,9.13-4.48,16.4-13.46,19.5-4.22,1.46-4.38,2.74-2.49,6.35,3.53,6.76,6.58,13.77,9.7,20.73,2.31,5.16,6.09,8.09,11.74,8.77,1.7,.2,4.27-.43,3.93,2.95-.36,3.59-3,1.9-4.55,1.97-4.82,.24-9.67-.14-14.48,.16-3.44,.21-5.36-.91-6.9-4.05-4.96-10.14-10.32-20.08-15.31-30.2-1.29-2.61-2.81-3.54-5.73-3.47-8.32,.21-16.65,.17-24.97,.02-2.6-.05-3.4,.68-3.35,3.32,.17,7.99,.21,15.98-.01,23.97-.09,3.1,.8,4.19,3.9,3.84,1.34-.15,3.43-1.01,3.51,1.97,.07,2.8-1.48,2.78-3.48,2.77-8.16-.05-16.32-.02-24.48-.02-1.64,0-3.27,.35-3.39-2.32-.14-3.15,1.96-2.7,3.58-2.41,5.1,.9,5.83-1.44,5.77-5.99-.26-19.64-.25-39.29,0-58.93,.06-4.62-.53-7.31-5.96-6.25-1.07,.21-2.87,.78-3.22-1.23-.36-2.12-.41-3.72,2.82-3.64,9.82,.24,19.64,.09,31.41,.09Zm7.71,5.02v-.17c-5.17,0-10.33,.07-15.5-.03-2.01-.04-2.98,.34-2.96,2.69,.12,9.99,.06,19.99,.04,29.99,0,1.45,.04,2.6,2.02,2.54,11.15-.29,22.38,.95,33.44-.6,10.36-1.46,14.47-7.94,13.67-19.57-.61-8.84-6.23-14.27-15.73-14.79-4.98-.27-9.99-.05-14.99-.05Z"/><path class="i" d="M47.79,2.02c14.32,0,28.63,.09,42.95-.07,2.99-.03,3.9,.76,4.15,3.82,.61,7.62,1.81,15.19,2.59,22.8,.13,1.31,1.57,3.44-1.21,3.98-2.46,.48-3.46-.75-4.06-3.09-.78-3.04-2.07-5.94-3.16-8.9-3.11-8.46-9.44-12.87-18.19-13.14-13.81-.42-27.63-.21-41.45-.39-2.23-.03-2.8,.73-2.78,2.85,.09,12.32,.08,24.64,0,36.96-.01,2.1,.54,2.92,2.77,2.87,9.98-.23,19.98-.05,29.95-.53,8.62-.42,11.19-3.25,12.16-11.98,.17-1.55-.03-2.9,2.29-2.88,2.21,.02,2.37,1.17,2.37,2.84-.02,9.99-.04,19.98,.02,29.97,0,1.65-.43,2.45-2.22,2.46-1.58,0-2.42-.29-2.48-2.15-.21-7.41-4.99-10.34-11.53-11.42-10.26-1.7-20.6-.61-30.9-.98-2.09-.07-2.45,.87-2.44,2.67,.05,11.32,.16,22.64-.05,33.96-.07,3.74,2.23,2.74,4.2,2.91,1.91,.17,4.58-1.07,4.56,2.71-.02,3.78-2.72,2.63-4.6,2.65-8.99,.09-17.98,.04-26.97,.03-1.79,0-3.7,.45-3.79-2.51-.1-3.18,1.89-3.17,3.91-2.85,5.19,.83,6.54-1.16,6.48-6.37-.29-25.3-.21-50.61-.05-75.91,.03-3.88-.5-5.95-4.99-5.33-1.76,.24-4.54,1.26-4.56-2.58-.01-3.83,2.67-2.67,4.53-2.67,14.15-.07,28.31-.04,42.46-.04v.32Z"/><path class="d" d="M158.29,101.55c-16.12-.07-29.39-3.1-40.73-12.05-21.66-17.09-20.92-46.01,2.23-60.94,22.32-14.4,46.12-15.13,69.65-3,17.77,9.16,25.88,28.23,20.3,45.21-4.14,12.58-13.55,20.21-25.26,25.29-8.95,3.88-18.39,5.66-26.19,5.48Zm36.66-41.55c.04-19.39-8.83-32.03-25.55-36.29-5.53-1.41-11.2-1.8-16.86-1.31-13.79,1.18-25.58,6.18-30.71,20.04-5.58,15.09-5.33,30.04,5.2,43.4,3.26,4.14,7.83,6.63,12.75,8.43,5.39,1.97,11.02,2.62,16.68,2.69,24.52,.3,38.43-13.11,38.48-36.96Z"/><path class="d" d="M944.93,101.54c-13.97-.07-27.08-3.1-38.33-11.82-21.96-17.01-21.27-46.26,2.09-61.24,22.36-14.34,46.13-15.01,69.64-2.85,17.39,8.99,25.35,27.43,20.41,44.34-2.74,9.38-8.78,16.29-16.86,21.48-11.24,7.22-23.69,10.17-36.95,10.09Zm-37.65-41.11c.4,23.87,14.44,37.04,38.96,36.56,24.99-.5,37.92-13.94,37.49-38.99-.39-23.04-14.98-36.07-39.94-35.69-23.17,.35-36.91,14.7-36.51,38.12Z"/><path class="e" d="M630.79,99.97c-12.5,0-24.99,0-37.49,0-1.9,0-4.13,.64-4-2.72,.13-3.37,2.62-2.13,3.97-1.97,4.21,.49,5.2-1.1,5.16-5.21-.23-20.32-.19-40.65-.02-60.97,.03-3.69-.57-5.62-4.78-5.02-1.9,.27-4.6,.97-4.3-2.78,.29-3.65,3.03-1.9,4.51-1.91,20.79-.15,41.59-.11,62.38-.13,1.98,0,5.21-.14,7.18-.33,5.51-.53,5.52-.03,6.12,6.37,.4,4.31,.95,8.6,1.48,12.9,.15,1.2,.47,2.37-1.2,2.72-1.35,.28-2.22-.15-2.6-1.57-.25-.96-.68-1.87-1.04-2.8-3.24-8.34-8.94-12.75-18.28-12.46-10.49,.32-20.99,.16-31.49,.02-3.24-.04-4.11,.84-3.53,5.51,.83,6.73,.74,13.55,.02,20.29-.46,4.33-.11,5.7,3.18,5.61,7.83-.22,15.67,.04,23.49-.31,7.9-.35,10.17-2.63,11.11-10.42,.21-1.74,.45-2.8,2.53-2.71,1.95,.08,2,1.21,1.99,2.66-.03,8.5-.01,16.99-.02,25.49,0,1.34,.12,2.71-1.87,2.86-2.08,.16-2.56-.97-2.6-2.71-.12-6.03-4-8.3-9.24-9.24-8.77-1.58-17.62-.45-26.43-.82-1.71-.07-2.3,.56-2.29,2.28,.06,10.16,.04,20.32,.02,30.49,0,1.39,.43,2.15,1.97,2.12,13.48-.27,26.98,.59,40.46-.49,6.26-.5,10.38-4.01,13.05-9.47,.73-1.49,1.56-2.95,2.09-4.52,.72-2.11,2.39-1.54,3.73-1.36,2.06,.28,.8,1.77,.66,2.71-.77,4.93-1.75,9.83-2.44,14.77-.39,2.81-1.49,3.69-4.51,3.63-12.32-.24-24.66-.1-36.98-.1v-.38Z"/><path class="d" d="M1093.77,79.72c0-18.35-.03-35.76,.04-53.17,0-2.08-.8-2.59-2.65-2.43-1.32,.11-2.66-.03-3.99,.03-1.78,.07-2.21-.88-2.26-2.47-.05-1.66,.46-2.41,2.22-2.39,5.33,.06,10.66,.07,15.98,0,1.82-.02,2.25,.83,2.2,2.43-.05,1.57-.52,2.74-2.29,2.4-5.49-1.06-5.12,2.34-5.1,6.09,.1,24.12,.05,48.24,.05,73.5-25.74-24.22-50.76-47.76-75.86-71.38-1.7,1.84-1.09,3.58-1.1,5.12-.05,17.65,.09,35.29-.12,52.94-.05,3.86,.9,5.36,4.87,4.91,1.36-.15,3.84-1.37,3.97,1.99,.14,3.4-2.15,2.67-4.01,2.68-4.99,.04-9.99,0-14.99,.02-1.66,0-3.32,.34-3.43-2.3-.1-2.59,1.39-2.79,3.13-2.45,5.82,1.16,6.57-1.62,6.48-6.75-.32-18.97-.12-37.95-.13-56.93,0-5.74-1.15-7.05-6.74-7.37-1.81-.1-3.17-.06-3.22-2.55-.05-2.75,1.67-2.32,3.28-2.32,5.66-.01,11.33,.17,16.98-.08,2.8-.12,4.22,1.58,5.88,3.15,18.88,17.83,37.76,35.67,56.64,53.5,1.15,1.09,2.32,2.14,4.18,3.85Z"/><path class="e" d="M840.06,18.49c11.39,.05,21.85,3.82,32.23,7.96,1.68,.67,2.52,1.68,2.62,3.68,.23,4.82,.82,9.62,1.23,14.43,.09,1.05,.82,2.44-1.12,2.67-1.28,.15-2.3-.12-2.63-1.58-.11-.48-.35-.93-.53-1.4-5.71-14.91-13.69-20.7-29.63-21.22-7-.23-14,.03-20.55,3.02-3.64,1.66-6.63,3.94-6.95,8.34-.33,4.56,2.65,6.95,6.14,8.84,7.85,4.24,16.62,5.69,25.09,8.01,7.21,1.98,14.49,3.82,21.11,7.4,7.32,3.97,12.27,9.49,11.94,18.57-.34,9.2-4.47,15.87-12.63,19.95-8.25,4.12-17.23,5.16-26.25,4.92-10.49-.28-20.83-2.03-30.96-4.98-2.74-.8-4.07-2.14-4.46-5.07-.69-5.1-1.96-10.12-2.72-15.21-.21-1.37-1.75-3.53,.65-4.27,2.34-.72,2.46,1.71,3.04,3.11,4.7,11.29,13.12,18.31,24.9,20.97,10.1,2.28,20.2,1.51,29.91-2.26,5.3-2.06,9.07-5.64,9.25-11.78,.19-6.26-4.23-9.06-9.06-11.24-9.91-4.47-20.74-5.9-31.07-8.99-4.94-1.48-9.85-3-14.32-5.66-13.38-7.96-13.29-24.91,.18-32.82,5.8-3.41,14.89-5.4,24.6-5.39Z"/><path class="e" d="M1153.81,102.24c-10.76-.64-21.62-2.04-32.2-5.22-2.41-.73-3.84-1.74-4.18-4.65-.62-5.44-1.97-10.79-2.85-16.21-.19-1.18-1.95-3.02,.62-3.64,2.01-.49,2.3,1.28,2.87,2.69,4.67,11.46,13.12,18.7,25.11,21.45,9.79,2.25,19.56,1.38,29.02-1.89,5.71-1.97,10-5.7,10.17-12.21,.16-6.36-4.53-9.17-9.59-11.42-7.49-3.33-15.54-4.8-23.4-6.85-7.07-1.84-14.18-3.6-20.68-7.1-6.61-3.56-10.96-8.78-10.77-16.64,.2-8.05,4.2-13.98,11.46-17.34,11.95-5.55,24.44-5.85,37.1-2.94,6.16,1.42,12.1,3.57,17.93,6.03,1.53,.65,3.01,1.24,3.14,3.37,.3,4.98,.82,9.96,1.16,14.94,.07,1,.71,2.47-1.24,2.63-1.35,.11-2.23-.43-2.63-1.74-.05-.16-.07-.33-.13-.48-9.09-20.47-28.76-28.13-49.72-19.33-3.99,1.68-7.45,4.01-7.66,8.89-.19,4.73,3.03,7.05,6.75,8.96,7.78,3.99,16.36,5.43,24.66,7.74,7.36,2.05,14.77,3.95,21.51,7.72,6.83,3.82,11.45,9.11,11.4,17.39-.05,8.86-3.68,15.72-11.55,20.13-8.12,4.55-17.09,5.15-26.32,5.73Z"/><path class="g" d="M769.49,95.18c-4-7.22-7.64-13.68-11.14-20.21-.91-1.69-2.23-1.64-3.74-1.63-14.98,.02-29.97,.04-44.95-.03-2.05-.01-3.35,.48-4.37,2.4-3.36,6.28-6.9,12.46-10.83,19.48,2.43,0,4.3,.1,6.16-.03,1.82-.13,2.27,.67,2.22,2.33-.05,1.53-.27,2.54-2.16,2.51-5.33-.07-10.66-.07-15.98,0-1.78,.03-2.26-.77-2.37-2.38-.15-2.08,.86-2.78,2.66-2.42,3.92,.79,5.39-1.63,7.03-4.59,11.3-20.49,22.76-40.9,34.16-61.35,.87-1.55,1.66-3.15,2.34-4.43-1.97-2.13-6.88,1.83-6.4-3.47,.39-4.28,4.17-1.53,6.35-2.03,11.69-2.67,17.83,2.67,22.98,13.23,9.66,19.82,21.13,38.76,31.69,58.15,1.66,3.05,3.3,5.15,7.15,4.52,1.43-.23,3.41-.74,3.41,2.14,0,3.06-2.03,2.47-3.75,2.49-8.16,.06-16.31,.12-24.47,.08-1.75-.01-4.27,1.02-4.32-2.4-.06-3.61,2.62-2.04,4.27-2.33,.97-.17,1.98-.03,4.08-.03Zm-37.35-67.33c-7.63,13.74-15,26.99-22.51,40.52h44.92c-7.58-13.71-14.84-26.84-22.41-40.52Z"/><path class="e" d="M303.05,48.26c0-7.66-.16-13.66,.06-19.65,.12-3.19-.3-5.09-4.16-4.54-1.78,.25-4.14,.84-4.06-2.6,.08-3.31,2.4-2.1,3.9-2.14,4.49-.14,9,.02,13.49-.08,1.83-.04,2.68,.36,2.63,2.44-.05,2.05-.92,2.76-2.72,2.42-4.62-.88-4.91,1.61-4.88,5.34,.1,12.15,.3,24.34-.38,36.46-1.19,21.12-15.82,34.91-36.93,35.59-5.68,.18-11.33-.16-16.87-1.49-17.45-4.19-27.78-16.89-28.24-35.15-.3-11.99-.23-23.99-.09-35.98,.04-3.39-.31-5.47-4.44-4.79-1.91,.31-4.08,.59-3.91-2.72,.17-3.3,2.53-2.01,4-2.03,8.33-.11,16.66-.09,24.99-.02,1.39,.01,3.42-.98,3.48,2.02,.06,2.74-1.33,3.15-3.37,2.77-4.99-.95-6.02,1.23-5.78,5.89,.66,13.29-.87,26.66,.88,39.92,2.29,17.38,11.38,26.27,27.18,27,16.67,.78,30.34-9.3,34-24.94,1.97-8.4,.8-16.92,1.2-23.72Z"/></g></g></g></svg>