<?xml version="1.0" encoding="UTF-8"?><svg xmlns="http://www.w3.org/2000/svg" viewBox="0 0 255.87 391.56"><defs><style>.d{fill:#979797;}.e{fill:#2b2b2a;}.f{fill:#fff;}.g{fill:#2d2d2c;}.h{fill:#424241;}.i{fill:#2a2a29;}.j{fill:#30302f;}.k{fill:#747473;}.l{fill:#2e2e2d;}.m{fill:#323130;}.n{fill:#353434;}.o{fill:#5a5959;}.p{fill:#343332;}</style></defs><g id="a"/><g id="b"><g id="c"><g><path class="f" d="M125.54,7.9c.16-2.45,.61-4.94-.63-7.9-2.32,3.43,.15,7.06-2.11,9.72-2.06-6.15-6.83-8.21-12.92-8.95,2.09,8.77,4.95,11.47,12.81,12.49,1.13,.39,.8,2.54,2.24,2.21,1.16-.26,.78-1.65,.78-2.6,0-1.66-.1-3.31-.16-4.97Zm-2.8,16.85c-2.18-6.71-6.11-9.54-12.91-9.3,1.92,8.24,5.02,11.09,12.79,11.77l1.12,.57c.01,3.73,.03,7.47,.04,11.2-2.96-4.11-5.31-8.91-11.2-9.65-.94-.12-2.11-.97-2.68,.04-.38,.66,.03,1.88,.31,2.79,2.05,6.62,7.14,9.03,13.5,9.64,0,2.31,0,4.62,0,6.93-.69,.73,.44,3.14-2.04,2.22-2.82-5.73-6.12-7.73-12.15-7.38,1.51,8,5.32,11.39,13.18,11.74,.29,.27,.58,.55,.87,.82-.07,3.28-.15,6.56-.22,9.84l-1.63-.18c-1.81-6.12-6.55-7.96-12.31-8.69,1.08,7.98,4.41,11.26,12.3,12.41l1.3,.15c-.01,3.39-.03,6.78-.04,10.17-1.62,.66-1.42-.97-1.76-1.59-2.65-4.84-6.85-6.76-12.22-7.14,1.61,8.64,5.16,11.84,13.75,12.66v11.44c-11.33-6.02-22.31-11-32.65-17.27-.94,2,.11,2.92,1.66,4.01,.83,.59,3.51,.32,2.15,2.77-6,.94-10.71,3.5-12.31,9.88-.24,.96-1.24,2.58,.85,2.56,3.26-.03,6.32-1.12,8.36-3.74,1.95-2.51,4.72-4.96,2.85-8.79,1.8-2.19,2.93,.22,4.05,.81,5.53,2.95,10.92,6.15,16.37,9.27,.21,2.49-1.9,1.67-3.05,2.01-6.22,1.85-9.02,5.16-9.77,11.76,8.12,.04,13.04-5.01,13.23-13.58,6.44,3,9.23,7.66,8.13,15.04-.82,5.55-.5,11.29-.57,16.94-.08,6.19-.02,12.38-.02,19.23-12.66-6.5-24.3-12.47-35.91-18.48-.68-.35-2.12-.48-1.31-1.95,9.06-1.61,11.87-4.23,13.45-12.5-8.3,.3-12.92,4.68-13.3,12.63-4.48,.09-7.66-2.61-10.92-5.12,.3-.3,.59-.61,.88-.92,6.77-.49,11.47-4.04,12.73-9.72,.26-1.14,1.1-2.56-1.44-2.55-6,.02-11.54,6.05-11.11,12.42-2.52,2.03-2.59-.66-2.96-1.78-.5-1.53-.42-3.24-.69-5.88q-2.07,9.89,4.67,14.55c.19,.13,.19,.52,.3,.81-5.83,1.11-10.75,3.46-12.51,9.7-.29,1.04-1.58,3.07,1.37,3.1,6.13,.07,11.91-6.67,10.96-12.93,3.93,1.26,7.43,3.27,10.43,6.15-5.45,.54-9.92,2.6-12.26,7.94-.59,1.35-1.57,3.02-.51,4.15,1.07,1.13,2.87,.18,4.22-.22,5.04-1.5,8.29-6.29,8.37-12.03,3.37,.44,5.58,3.29,8.72,4.21,.67,1.05,.63,1.66-.79,2.06-1.9,.54-3.83,1.16-5.53,2.14-3.39,1.95-5.03,5.18-5.66,8.94-.14,.87,.63,1.07,1.3,1.06,3.71-.08,6.66-1.7,9.1-4.45,2.1-2.37,2.35-5.61,4.04-8.16,3.08,1.82,6.17,3.64,9.25,5.46-7,1.58-13.08,4.17-13.9,12.8,4.2,.63,7.42-1.04,10.18-3.95,2.33-2.45,2.69-5.88,4.32-8.68,2.88,1.96,5.77,3.93,8.65,5.89-7.01,1.41-12.36,4.55-13.21,12.53,6.24,.16,10.23-2.36,12.63-7.77,.64-1.44,.37-3.34,2.1-4.24,3.2,2.9,4.14,6.49,3.95,10.77-.44,10.31-.56,20.63-.75,30.95-.08,4.55-.01,9.1-.01,14.74-6.12-4.27-12.57-5.36-17.01-10.11,9.27-2.02,11.92-4.55,13.22-12.63-8.47,.48-13.15,5.05-13.07,12.76-4.01-.13-6.95-2.5-9.97-4.79,.44-1.86,2.08-1.01,3.15-1.31,4.93-1.39,7.78-4.77,9.35-9.44,.57-1.69,.56-2.8-1.89-2.56-6.65,.66-11.67,6.91-10.57,13.42-6.7-2.3-12.65-6.16-18.96-9.27-.96-.47-2.66-.4-2.33-2.27,8.75-1.01,13.01-5.1,13.09-12.58-8.8,1.42-12.4,4.97-12.93,12.73-3.99-.19-7.08-2.24-9.96-4.79,.58-1.47,1.97-.89,3-1.14,5.96-1.47,9.3-5.58,9.6-11.9-8.59,.7-13.33,5.67-12.52,13.15-3.62-.48-6.47-2.62-9.43-4.48-.87-.54-2.58-1.34-.99-2.94,6.67,1.73,12.6-3.53,13.01-11.54-8.28,1.05-11.74,4.17-12.93,11.7-2.67-.15-1.75-2.31-1.89-3.67-.24-2.45-.14-4.94-.18-7.41,.35-1.57,1.44-1.16,2.64-1.25,6.15-.43,10.84-4.37,12.2-9.94,.4-1.63,.74-2.91-1.89-2.51-5.66,.86-13.28,8.33-13.71,13.72-.45,3.27-.45,6.68-1.44,9.77-1.82,5.69,.51,8.6,5.67,10.16-.5,2.26-2.59,1.53-3.97,2.03-4.18,1.5-7.12,4.09-8.55,8.39-.92,2.76-.79,4.06,2.73,3.18,6.33-1.59,10.19-6.57,10.07-13.48,3.28,1.96,6.56,3.93,9.84,5.89-1.04,1.83-3.1,1.28-4.65,1.89-3.95,1.55-6.66,4.07-8.09,8.13-.98,2.78-.93,4.01,2.61,3.26,6.15-1.32,10.26-6.48,10.15-13.27,2.9,1.66,5.8,3.32,8.7,4.98,1.44,2.27-.59,1.85-1.67,2.14-4.52,1.22-8.15,3.49-9.77,8.18-.41,1.21-1.5,2.58-.4,3.63,.99,.94,2.55,.23,3.77-.09,5.4-1.39,8.81-6.15,9.37-12.88,2.93,1.66,5.86,3.32,8.79,4.98,.72,2.26-1.18,1.77-2.23,2.05-4.2,1.1-7.5,3.27-9.26,7.42-.58,1.36-1.6,3.03-.73,4.15,.96,1.23,2.73,.32,4.14-.1,4.73-1.42,7.23-4.88,8.72-9.33,.35-1.04-.36-2.96,1.93-2.59,6.55,3.84,13.1,7.67,19.65,11.51-3.47,1.35-7.55,1.16-10.39,4.12-2.32,2.42-5.49,6.17-3.5,8.31,2.09,2.26,6.03-.64,8.69-2.68,3.2-2.46,3.15-6.69,5.25-9.74,2.71,3.07,7.66,3.2,9.58,7.29-6.6-.39-11.69,2.76-13.69,8.41-.39,1.11-1,2.35-.3,3.32,.84,1.16,2.16,.22,3.22,.03,6.6-1.18,8.51-6.64,10.67-11.85,4.5,.85,5.38,4.55,5.43,8.03,.22,15.41,.09,30.82,.09,47.14-2.29-1.12-3.32-1.6-4.32-2.12-27.32-14.06-54.57-28.26-82.01-42.09-6.04-3.04-8.67-7.09-8.4-13.74,.16-3.96,1.01-8.06-.58-12.84-1.13,8.32-2.07,15.75-3.19,23.15-.42,2.78,.16,4.53,2.86,5.99,7.15,3.89,14.12,8.11,21.14,12.25,20.9,12.33,41.75,24.75,62.71,36.98,7.48,4.37,11.15,10.24,10.61,19.2-.65,10.63-.56,21.32-.46,31.98,.04,4.14-1.04,4.27-4.35,2.56-33.33-17.27-66.64-34.58-100.13-51.53-6.92-3.5-9.72-8.37-9.55-15.82,.11-4.95,.89-9.97-.6-14.9-1.45,8.88-2.34,17.81-3.87,26.64-.65,3.74,.15,5.64,3.45,7.53,15.73,8.98,31.34,18.17,46.94,27.39,19.6,11.59,39.09,23.37,58.74,34.86,6.15,3.6,8.93,8.49,8.55,15.57-.31,5.65-.08,11.33-.2,16.99-.1,4.3-1.71,7.78-5.98,9.47-.92,.37-2.22,.48-1.99,1.76,.3,1.69,1.87,1,2.89,1,8.33,.06,16.66,.04,24.99,.03,.96,0,2.06,.26,2.51-1.02q-8.23-6.84-8.31-18.71c-.02-3,.1-6.01-.07-8.99-.42-7.38,2.5-12.51,9.03-16.34,33-19.29,65.69-39.12,98.87-58.1,7.76-4.44,11.73-8.53,9.2-17.92-2.01-7.45-2.31-15.37-3.37-23.08-.64,6.84-.69,13.56-.63,20.29,.05,5.74-2.41,9.7-7.59,12.35-34.14,17.51-68.24,35.09-102.31,52.75-3.1,1.6-3.95,1.17-3.95-2.34,0-11.33,.04-22.67-.44-33.98-.32-7.57,2.86-12.78,9.02-16.54,7.24-4.41,14.5-8.79,21.81-13.08,21.06-12.39,42.15-24.72,63.2-37.11,1.6-.94,3.78-1.39,3.38-4.23-1.23-8.77-2.28-17.56-3.39-26.34-.63,5.29-.75,10.52-.6,15.73,.16,5.44-2.14,9.03-7.02,11.52-27.67,14.11-55.31,28.28-82.86,42.63-4.02,2.09-4.21,.65-4.22-2.78-.06-12.33,.15-24.68-.62-36.97-.51-8.15,2.67-12.97,9.5-16.88,19.91-11.37,39.6-23.14,59.33-34.84,1.53-.91,4.06-1.21,3.68-4.04-.84-6.23-1.64-12.47-2.45-18.71-.56,3.91-.54,7.73-.56,11.56,0,2.22-.24,4.65-2.22,5.83-8.87,5.31-17.88,10.41-27.61,14.04-.03,.01-.18-.26-.27-.4,4.65-8.14,4.86-11.36,1.08-16.98-6.43,5.85-7.2,12.86-1.98,17.93-3.35,3.49-8.09,4.58-12.1,6.93-1.06,.62-2.26,2.27-3.77,.54,3.2-5.34,4.47-10.73,.6-16.45-6.65,6.44-7.29,12.19-2.29,19.06-5.49,2.72-10.98,5.42-16.46,8.17-4.87,2.45-4.84,2.47-4.93-2.75-.23-13.13-.23-26.28-.81-39.4-.29-6.51,2.28-10.6,7.75-13.73,13.53-7.75,26.85-15.87,40.41-23.58,4.04-2.29,4.87-4.65,1.76-8.82-.15,3.51-2.31,4.87-4.76,6.12-13.58,6.95-27.11,13.99-40.7,20.93-1.39,.71-2.62,2.08-5.71,1.44v-43.67c1.8-2.03,3.78-3.46,5.97-4.72,8.04-4.64,16.04-9.36,24.02-14.1,1.74-1.03,4.24-1.84,2.17-5.09-1.93,2.13-3.86,4.31-7.07,3.17,.79,.09,1.28-.27,1.25-1.05-.15-5.24-6.38-11.03-11.58-11.03-2.42,0-1.7,1.21-1.36,2.51,1.5,5.64,5.52,8.96,11.65,9.56,.72,.42,.87,1.15,.18,1.5-8.36,4.22-16.31,9.28-25.2,12.41-.38-22.28-.77-44.56-1.15-66.84,.09-3.24,.74-6.53-.74-10.01-2.26,2.24,.13,5.24-2.12,6.94Zm108.1,296.61c-.78-7.28-4.43-11.37-10.49-12.46-2.61-.47-3.2,.37-2.73,2.84,1.02,5.29,5.18,8.47,13.22,9.63Zm-2.14-64.26c.5,6.98,3.97,11,9.94,12.37,3.47,.8,3.74-.83,2.94-3.38-1.91-6.1-6.65-8.33-12.88-8.99Zm18.96,50.4c.16-5.52-4.21-11.16-9.23-12.28-1.27-.28-1.67-.19-2.01,1.1-1.12,4.28,2.11,9.77,7.38,12.31,.45,.21,.92,.37,1.37,.59,2.07,1.05,2.69,.18,2.49-1.72Zm-39.93-101.35c1.32,5.95,4.09,10.43,10.51,11.84,2.62,.58,3.79,.47,2.78-2.76-1.82-5.8-6.38-9.12-13.29-9.08Zm-6.04,69.58c1.46,6.53,4.31,10.9,10.66,12.42,3.55,.85,3.6-.35,2.64-3.17-2.1-6.14-6.72-8.5-13.3-9.25Zm-17.74-126.59c.94,6.93,5.03,11.37,10.86,12.13,2.2,.29,2.55-.26,2.14-2.34-1.09-5.64-5.88-9.35-13.01-9.79Zm71.72,80.65c-6.14,2.46-9.55,6.42-9.84,12.77-.12,2.7,.68,3.76,3.41,2.18,5.65-3.25,7.25-8.25,6.43-14.95Zm-102.68-23.77c1.35,8.3,5.85,12.24,13.26,11.59-1.51-7.97-5.47-11.43-13.26-11.59Zm43.68,118.3c-.3-1.2,.54-2.88-1.04-3.52-1.21-.49-2.1,.75-3,1.4-3.74,2.73-5.71,6.42-5.55,11.08,.04,1.11,.24,2.61,.97,3.19,1.01,.82,2.09-.51,2.98-1.1,3.91-2.62,5.51-6.47,5.65-11.07ZM34.65,149.26c.66,6.66,4.29,10.78,10.22,12.08,2.73,.6,3.27-.26,2.67-2.71-1.34-5.48-5.89-8.81-12.9-9.37Zm181.87,6.03c-8.95,1.33-12.38,4.64-13.05,12.23,7.64-.09,11.81-3.89,13.05-12.23Zm-120.15,19.35c-8.08,.41-11.59,3.51-13.26,11.7,7.4,.65,12.28-3.66,13.26-11.7Zm82.76-68.7c6.25-1.75,9.91-6.98,9.52-13.18-.18-2.86-1.3-2.37-3.1-1.4-5.35,2.87-7.51,7.67-6.42,14.59Zm-20.41,208.89c.31-4.56-7.44-11.51-12.22-11.07-1.62,.15-1.21,.89-1.04,1.94,.83,5.27,5.76,10.04,11,10.58,1.21,.13,2.4,.43,2.26-1.45ZM55.01,106.76c1.36,6.44,4.11,10.84,10.5,12.37,3.61,.87,3.66-.49,2.72-3.22-2.07-5.96-6.62-8.34-13.22-9.15Zm-21.02,55.06c-1.4-.18-1.54,.43-1.43,1.71,.42,4.98,6.57,10.65,11.46,10.7,1.81,.02,1.82-.76,1.73-2.06-.33-4.66-7.08-10.63-11.76-10.36ZM106.9,64.94c-7.7,1.43-11.59,4.41-12.93,9.58-.61,2.34-.33,3.36,2.55,2.76,5.91-1.24,9.47-5.17,10.38-12.34Zm88.06,44.98c-6.53-.04-11.55,3.58-13,9.2-.58,2.25-.06,2.98,2.33,2.7,5.54-.65,9.57-5.05,10.67-11.9Zm-100.01,20.63c7.33-.3,11.86-3.87,13.39-9.96,.53-2.13,.18-2.55-2.05-2.21-6.08,.94-9.72,4.63-11.34,12.16Zm63.02-64.31c.05-4.97-4.6-10.51-9.41-11.53-1.83-.39-2.25,.02-2.14,1.91,.28,5,4.1,9.89,8.97,11.29,1.74,.5,2.99,.68,2.59-1.67Zm37.43,231.04c-1.64-8.22-5.59-11.66-13.45-11.7,1.62,8.38,6.05,12.23,13.45,11.7Zm33.12-62.6c1.13,7.23,4.5,10.94,10.12,12.31,3.63,.88,3.66-.71,2.76-3.24-2.06-5.81-6.53-8.34-12.88-9.08Zm-6.72-31.01c-.24-4.81-6.64-10.52-11.62-10.63-1.51-.03-1.58,.58-1.55,1.71,.14,4.69,6.5,10.68,11.4,10.84,1.63,.06,2.11-.48,1.76-1.92Zm-46.41-93c.41-6.8-2.76-11.66-8.56-13.62-2.34-.79-3.38-.56-2.77,2.32,1.29,6.12,4.75,9.98,11.34,11.29Zm-40.91,41c1.24,7.17,4.49,11.08,9.9,12.13,1.05,.2,2.51,1.14,3.17-.1,.44-.82,.05-2.27-.33-3.31-2.08-5.65-6.51-8.03-12.74-8.72Zm40.1-88.65c-7.32,.39-11.35,3.33-13.25,8.96-.92,2.72-.61,3.65,2.49,3.03,6.49-1.3,9.28-5.8,10.76-11.99Zm-70.96-11.16c-6.2,2.06-9.96,5.76-10.61,12.15-.26,2.53,.5,3.36,3.11,2.24,5.17-2.22,7.75-6.76,7.49-14.39Zm-32.17,53.95c.71-8.01-2.99-13.11-10.4-14.35,.02,8.64,3.22,13.05,10.4,14.35Zm171.42,108.61c-6.49,.43-10.74,3.22-12.89,8.99-1.18,3.17,.12,3.8,2.99,3.17,5.31-1.18,8.71-5.18,9.91-12.16ZM85.55,78.35c2.61,.83,2.56-.73,2.18-2.64-.95-4.73-6.51-9.39-11.33-9.73-2.47-.17-1.79,1.26-1.54,2.47,1.02,4.92,5.59,9.16,10.69,9.9Zm87.26,118.17c-2-.73-2.55,0-2.13,2.11,.91,4.66,5.67,9.16,10.49,10.01,2.94,.52,2.94-.86,2.36-2.98-1.29-4.71-5.6-8.45-10.72-9.13ZM42.18,133.83c-1.66,6.87,.24,12.02,5.23,15.11,2.66,1.65,3.33,.86,3.45-1.95,.28-6.54-3.34-10.35-8.69-13.16Zm48.99-31.06c8.15-.16,12.51-4.27,13.07-11.92-7.89,.54-11.47,3.74-13.07,11.92Zm-11.13-49.03c-.67,6.74,1.79,11.47,6.91,13.99,2.85,1.4,3.41,.37,3.28-2.3-.28-5.86-3.93-10.12-10.19-11.68ZM228.92,205.58c4.52,.5,11.81-6.27,11.85-10.94,.01-1.25-.28-1.65-1.67-1.59-4.96,.21-10.85,5.31-11.45,10.15-.13,1.04-.79,2.47,1.27,2.38Zm-146.89,11.94c-5.12,.16-11.06,5.6-11.35,10.32-.07,1.07-.16,1.79,1.35,1.95,3.85,.41,9.3-3.68,11.16-8.62,.23-.62,.42-1.25,.59-1.89,.43-1.62-.2-2.19-1.76-1.77Zm36.66-92.03c.42-1.69-.41-1.88-1.87-1.82-4.74,.19-10.4,5.22-11.19,9.84-.37,2.18,.44,2.51,2.34,2.33,4.73-.45,10.36-5.8,10.72-10.35Zm50.09-75.18c-.41-1.47,.36-3.44-1.07-4.19-1.81-.96-2.78,1.15-4,2.06-.77,.58-1.38,1.42-1.96,2.22-2.28,3.17-2.56,6.71-1.75,10.39,.22,.98,1.05,1.29,1.91,.8,3.14-1.79,5.39-4.32,6.23-7.92,.26-1.12,.43-2.26,.63-3.36Zm14.74,225.49c2.3,.61,2.63-.59,2.17-2.67-1.01-4.58-6.34-9.11-10.99-9.46-1.93-.15-2.24,.5-1.91,2.21,.9,4.74,5.9,9.49,10.74,9.93Z"/><path class="i" d="M54.13,178.7c-5.17-1.56-7.49-4.47-5.67-10.16,.99-3.09,.99-6.5,1.44-9.77,.26,0,.52,0,.77-.02,.04,2.47-.06,4.96,.18,7.41,.13,1.36-.78,3.52,1.89,3.67,0,0-.08-.17-.08-.17-1.59,1.61,.12,2.4,.99,2.94,2.95,1.86,5.8,4.01,9.43,4.48l-.07-.09c2.86,2.54,5.95,4.59,9.94,4.77l-.16-.15c-.33,1.88,1.37,1.8,2.33,2.28,6.31,3.12,12.25,6.97,18.96,9.27l-.02-.09c2.99,2.26,5.93,4.63,9.95,4.76l-.14-.13c4.43,4.75,10.88,5.85,17,10.11,0-5.64-.07-10.19,.01-14.74,.19-10.32,.31-20.64,.75-30.95,.18-4.29-.76-7.87-3.95-10.77-.36-.6-.9-.68-1.53-.53-2.88-1.96-5.77-3.93-8.65-5.89-.17-.17-.38-.23-.6-.17-3.08-1.82-6.17-3.64-9.25-5.46-.82-.53-1.64-1.05-2.46-1.58-3.14-.92-5.35-3.77-8.72-4.21l.15,.15c-2.98-2.88-6.48-4.88-10.41-6.14l.16,.11c-.09-.27-.09-.66-.28-.79q-6.73-4.66-4.67-14.55c.27,2.64,.19,4.35,.69,5.88,.36,1.12,.43,3.81,2.96,1.78l-.17-.15c-.3,.3-.59,.61-.89,.91,3.26,2.52,6.44,5.21,10.92,5.12l-.14-.13c-.82,1.47,.62,1.6,1.3,1.95,11.62,6.02,23.26,11.98,35.91,18.48,0-6.84-.06-13.03,.02-19.23,.07-5.66-.25-11.39,.57-16.94,1.1-7.38-1.7-12.04-8.13-15.04l-.41-.19c-5.44-3.11-10.84-6.32-16.37-9.27-1.12-.6-2.24-3-4.04-.81,0,0,.24,.09,.24,.09,1.36-2.45-1.31-2.18-2.15-2.77-1.55-1.09-2.59-2.01-1.66-4.01,10.34,6.27,21.32,11.25,32.65,17.27v-11.44c1.41-1.23,1.37-2.55,.23-3.94,.01-3.39,.03-6.78,.04-10.17,1.25-1.12,.99-2.38,.35-3.68,.07-3.28,.15-6.56,.22-9.84,.05-2.47,.09-4.93,.14-7.4,0-2.31,0-4.62,0-6.93l.07-2.82c-.01-3.73-.03-7.47-.04-11.2l1.86,.03c.38,22.28,.77,44.56,1.15,66.84,.08,2.28,.16,4.55-.04,6.83v43.67c3.09,.65,4.32-.73,5.71-1.44,13.58-6.94,27.12-13.98,40.7-20.93,2.45-1.25,4.61-2.61,4.76-6.12,3.11,4.17,2.28,6.53-1.76,8.82-13.56,7.7-26.87,15.83-40.41,23.58-5.46,3.13-8.03,7.22-7.75,13.73,.58,13.12,.58,26.26,.81,39.4,.09,5.21,.06,5.19,4.93,2.75,5.47-2.75,10.97-5.45,16.46-8.17,.22-.11,.39-.27,.53-.47,.52-.64,2.26-.69,1.05-2.17l.11,.03c1.51,1.73,2.71,.08,3.77-.54,4.01-2.34,8.75-3.44,12.1-6.93l-.07,.1c.85,.11,1.74,.25,1.12-1.12l-.15,.06c.09,.14,.23,.41,.27,.4,9.73-3.63,18.74-8.73,27.61-14.04,1.97-1.18,2.21-3.61,2.22-5.83,.02-3.83,0-7.65,.56-11.56,.82,6.24,1.62,12.47,2.45,18.71,.38,2.82-2.16,3.13-3.68,4.04-19.72,11.7-39.41,23.47-59.33,34.84-6.83,3.9-10.02,8.72-9.5,16.88,.78,12.29,.57,24.64,.62,36.97,.02,3.44,.2,4.88,4.22,2.78,27.55-14.35,55.19-28.52,82.86-42.63,4.88-2.49,7.18-6.08,7.02-11.52-.15-5.21-.03-10.43,.6-15.73,1.12,8.78,2.16,17.57,3.39,26.34,.4,2.84-1.78,3.29-3.38,4.23-21.05,12.39-42.15,24.72-63.2,37.11-7.31,4.3-14.57,8.67-21.81,13.08-6.16,3.76-9.34,8.97-9.02,16.54,.48,11.31,.45,22.65,.44,33.98,0,3.51,.85,3.95,3.95,2.34,34.07-17.65,68.17-35.24,102.31-52.75,5.18-2.65,7.64-6.61,7.59-12.35-.06-6.72-.02-13.45,.63-20.29,1.06,7.71,1.36,15.62,3.37,23.08,2.53,9.39-1.45,13.48-9.2,17.92-33.18,18.97-65.87,38.8-98.87,58.1-6.54,3.82-9.46,8.95-9.03,16.34,.17,2.99,.05,6,.07,8.99q.08,11.88,8.31,18.71c-.46,1.28-1.55,1.02-2.51,1.02-8.33,.01-16.66,.03-24.99-.03-1.02,0-2.59,.69-2.89-1-.23-1.28,1.06-1.39,1.99-1.76,4.27-1.7,5.89-5.17,5.98-9.47,.13-5.66-.1-11.34,.2-16.99,.39-7.08-2.39-11.97-8.55-15.57-19.66-11.49-39.14-23.27-58.74-34.86-15.59-9.22-31.2-18.42-46.94-27.39-3.3-1.89-4.1-3.78-3.45-7.53,1.53-8.83,2.42-17.76,3.87-26.64,1.49,4.93,.71,9.95,.6,14.9-.17,7.45,2.62,12.32,9.55,15.82,33.49,16.95,66.8,34.25,100.13,51.53,3.31,1.72,4.39,1.59,4.35-2.56-.1-10.66-.19-21.35,.46-31.98,.55-8.96-3.13-14.84-10.61-19.2-20.96-12.23-41.81-24.65-62.71-36.98-7.01-4.14-13.98-8.36-21.14-12.25-2.69-1.46-3.28-3.21-2.86-5.99,1.12-7.4,2.06-14.83,3.19-23.15,1.59,4.78,.74,8.89,.58,12.84-.27,6.65,2.37,10.7,8.4,13.74,27.44,13.83,54.69,28.03,82.01,42.09,1,.52,2.03,1,4.32,2.12,0-16.32,.12-31.73-.09-47.14-.05-3.48-.93-7.18-5.43-8.03l.1,.1c-1.93-4.1-6.88-4.23-9.59-7.3h-.05c-6.55-3.84-13.1-7.68-19.65-11.52-.63-.89-1.45-1.49-2.57-1.6-2.93-1.66-5.86-3.32-8.79-4.98l-1.31-.98c-2.9-1.66-5.8-3.32-8.7-4.98h-.02c-3.28-1.98-6.56-3.94-9.84-5.9l-.28-.12Z"/><path class="n" d="M127,101.5l-.24-6.83c8.89-3.13,16.84-8.19,25.2-12.41,.68-.34,.54-1.07-.18-1.5h.03c3.22,1.15,5.14-1.04,7.07-3.17,2.06,3.25-.43,4.06-2.17,5.09-7.99,4.74-15.98,9.45-24.02,14.1-2.19,1.26-4.17,2.69-5.68,4.72Z"/><path class="p" d="M50.67,158.74c-.26,.02-.52,.02-.77,.02,.43-5.38,8.06-12.85,13.71-13.72,2.63-.4,2.29,.88,1.89,2.51-1.36,5.57-6.05,9.51-12.2,9.94-1.19,.08-2.28-.33-2.64,1.25Z"/><path class="h" d="M122.95,79.85c1.13,1.39,1.18,2.71-.24,3.94-8.58-.82-12.14-4.02-13.74-12.66,5.37,.37,9.57,2.3,12.22,7.14,.34,.62,.14,2.25,1.76,1.59Z"/><path class="l" d="M230.84,321.37c-8.03-1.16-12.2-4.34-13.22-9.63-.47-2.47,.12-3.31,2.73-2.84,6.06,1.09,9.71,5.19,10.49,12.46Z"/><path class="l" d="M228.7,257.11c6.23,.66,10.97,2.88,12.88,8.99,.8,2.55,.53,4.18-2.94,3.38-5.97-1.37-9.44-5.39-9.94-12.37Z"/><path class="j" d="M247.66,307.51c.2,1.9-.43,2.78-2.49,1.72-.44-.23-.92-.38-1.37-.59-5.27-2.53-8.5-8.03-7.38-12.31,.34-1.29,.74-1.39,2.01-1.1,5.02,1.12,9.39,6.76,9.23,12.28Z"/><path class="n" d="M54.13,178.7l.28,.12c.12,6.91-3.74,11.89-10.07,13.48-3.51,.88-3.64-.42-2.73-3.18,1.43-4.3,4.37-6.9,8.55-8.39,1.38-.49,3.47,.23,3.97-2.03Z"/><path class="p" d="M167.73,186.72c-5.22-5.07-4.45-12.08,1.98-17.93,3.78,5.62,3.57,8.84-1.08,16.98l.15-.06c-.86-.12-1.36,.13-1.12,1.12l.07-.1Z"/><path class="p" d="M207.73,206.16c6.91-.04,11.47,3.28,13.29,9.08,1.02,3.24-.15,3.34-2.78,2.76-6.42-1.41-9.19-5.89-10.51-11.84Z"/><path class="j" d="M72.97,189.7l1.31,.98c-.56,6.72-3.98,11.48-9.37,12.88-1.23,.32-2.79,1.02-3.77,.09-1.1-1.05-.02-2.42,.4-3.63,1.61-4.69,5.24-6.96,9.77-8.18,1.08-.29,3.11,.13,1.67-2.14Z"/><path class="p" d="M201.7,275.74c6.58,.75,11.2,3.12,13.3,9.25,.97,2.82,.91,4.02-2.64,3.17-6.35-1.52-9.2-5.89-10.66-12.42Z"/><path class="l" d="M183.95,149.15c7.13,.44,11.92,4.15,13.01,9.79,.4,2.08,.05,2.63-2.14,2.34-5.83-.76-9.92-5.2-10.86-12.13Z"/><path class="n" d="M116.13,150.83c.62-.16,1.17-.08,1.53,.53-1.73,.9-1.47,2.8-2.1,4.24-2.4,5.41-6.39,7.93-12.63,7.77,.85-7.98,6.2-11.12,13.21-12.53Z"/><path class="p" d="M255.68,229.8c.82,6.7-.78,11.7-6.43,14.95-2.73,1.57-3.53,.52-3.41-2.18,.29-6.34,3.7-10.31,9.84-12.77Z"/><path class="p" d="M72.93,181.76c.53-7.77,4.13-11.31,12.93-12.73-.08,7.48-4.34,11.58-13.09,12.58l.16,.15Z"/><path class="m" d="M152.99,206.03c7.79,.16,11.75,3.62,13.26,11.59-7.4,.65-11.91-3.28-13.26-11.59Z"/><path class="n" d="M196.67,324.34c-.13,4.59-1.74,8.45-5.65,11.07-.88,.59-1.96,1.92-2.98,1.1-.72-.58-.93-2.09-.97-3.19-.17-4.67,1.81-8.35,5.55-11.08,.9-.66,1.79-1.89,3-1.4,1.58,.63,.74,2.31,1.04,3.52Z"/><path class="l" d="M95.17,137.72c.82,.53,1.64,1.05,2.46,1.58-1.69,2.55-1.93,5.8-4.04,8.16-2.44,2.75-5.39,4.37-9.1,4.45-.67,.01-1.44-.19-1.3-1.06,.62-3.76,2.26-7,5.66-8.94,1.7-.97,3.63-1.6,5.53-2.14,1.42-.4,1.46-1.02,.79-2.06Z"/><path class="m" d="M106.88,144.77c.23-.06,.43,0,.6,.17-1.63,2.8-1.99,6.23-4.32,8.68-2.76,2.91-5.99,4.58-10.18,3.95,.82-8.63,6.9-11.22,13.9-12.8Z"/><path class="l" d="M83.07,195.66c1.12,.1,1.94,.71,2.57,1.6-2.29-.37-1.58,1.55-1.93,2.59-1.5,4.45-4,7.91-8.72,9.33-1.41,.42-3.18,1.33-4.14,.1-.87-1.12,.15-2.78,.73-4.15,1.75-4.15,5.06-6.32,9.26-7.42,1.05-.28,2.95,.22,2.23-2.05Z"/><path class="m" d="M34.65,149.26c7.01,.56,11.55,3.89,12.9,9.37,.6,2.45,.06,3.3-2.67,2.71-5.94-1.3-9.57-5.42-10.22-12.08Z"/><path class="p" d="M216.52,155.29c-1.24,8.34-5.41,12.14-13.05,12.23,.67-7.59,4.1-10.9,13.05-12.23Z"/><path class="n" d="M84.91,125.82c.39-7.95,5-12.33,13.3-12.63-1.58,8.27-4.39,10.89-13.45,12.5l.14,.13Z"/><path class="n" d="M96.37,174.64c-.97,8.04-5.86,12.35-13.26,11.7,1.66-8.18,5.18-11.28,13.26-11.7Z"/><path class="m" d="M114.04,94.72l.41,.19c-.19,8.57-5.11,13.62-13.23,13.58,.75-6.61,3.55-9.91,9.77-11.76,1.15-.34,3.26,.48,3.05-2.01Z"/><path class="n" d="M64.25,184.71h.02c.1,6.8-4,11.97-10.15,13.28-3.54,.76-3.59-.48-2.61-3.26,1.43-4.06,4.14-6.58,8.09-8.13,1.55-.61,3.61-.06,4.65-1.89Z"/><path class="n" d="M179.13,105.94c-1.09-6.91,1.07-11.72,6.42-14.59,1.8-.96,2.91-1.46,3.1,1.4,.4,6.2-3.27,11.43-9.52,13.18Z"/><path class="p" d="M158.72,314.83c.13,1.88-1.05,1.58-2.26,1.45-5.23-.54-10.16-5.31-11-10.58-.17-1.05-.58-1.79,1.04-1.94,4.78-.44,12.53,6.51,12.22,11.07Z"/><path class="p" d="M55.01,106.76c6.6,.8,11.15,3.19,13.22,9.15,.95,2.74,.9,4.09-2.72,3.22-6.39-1.53-9.14-5.93-10.5-12.37Z"/><path class="j" d="M33.99,161.81c4.68-.27,11.43,5.7,11.76,10.36,.09,1.3,.09,2.08-1.73,2.06-4.89-.05-11.03-5.72-11.46-10.7-.11-1.28,.03-1.9,1.42-1.72Z"/><path class="p" d="M106.9,64.94c-.91,7.17-4.47,11.1-10.38,12.34-2.88,.6-3.16-.42-2.55-2.76,1.34-5.17,5.23-8.15,12.93-9.58Z"/><path class="l" d="M194.96,109.93c-1.1,6.85-5.13,11.24-10.67,11.9-2.39,.28-2.91-.45-2.33-2.7,1.45-5.62,6.48-9.24,13-9.2Z"/><path class="n" d="M94.96,130.56c1.62-7.53,5.27-11.22,11.34-12.16,2.22-.34,2.58,.08,2.05,2.21-1.53,6.09-6.05,9.66-13.39,9.96Z"/><path class="g" d="M157.98,66.25c.4,2.35-.85,2.17-2.59,1.67-4.87-1.4-8.68-6.29-8.97-11.29-.11-1.89,.31-2.3,2.14-1.91,4.81,1.02,9.46,6.56,9.41,11.53Z"/><path class="p" d="M195.41,297.29c-7.4,.53-11.83-3.32-13.45-11.7,7.86,.03,11.81,3.47,13.45,11.7Z"/><path class="m" d="M150.7,196.33c-.14,.2-.31,.36-.53,.47-4.99-6.86-4.36-12.61,2.29-19.06,3.87,5.72,2.59,11.11-.6,16.45l-.11-.03c-.77,.52-2.11,.76-1.05,2.17Z"/><path class="p" d="M103.99,197.84c-.08-7.71,4.6-12.28,13.07-12.76-1.31,8.08-3.96,10.61-13.22,12.63,0,0,.15,.13,.15,.13Z"/><path class="p" d="M228.53,234.69c6.35,.73,10.82,3.27,12.88,9.08,.9,2.52,.86,4.12-2.76,3.24-5.63-1.37-8.99-5.08-10.12-12.31Z"/><path class="m" d="M52.65,169.66s.08,.17,.08,.17c1.2-7.54,4.65-10.66,12.93-11.7-.41,8.01-6.34,13.27-13.01,11.54Z"/><path class="j" d="M221.81,203.67c.35,1.43-.13,1.97-1.76,1.92-4.9-.17-11.27-6.15-11.4-10.84-.03-1.13,.04-1.74,1.55-1.71,4.97,.11,11.38,5.82,11.62,10.63Z"/><path class="m" d="M114.83,215.98c-2.17,5.21-4.07,10.67-10.67,11.85-1.06,.19-2.38,1.13-3.22-.03-.71-.97-.1-2.21,.3-3.32,2-5.66,7.08-8.8,13.69-8.4,0,0-.09-.09-.09-.09Z"/><path class="m" d="M175.4,110.67c-6.59-1.32-10.04-5.17-11.34-11.29-.61-2.88,.43-3.12,2.77-2.32,5.8,1.96,8.97,6.82,8.56,13.62Z"/><path class="g" d="M93.87,84.73s-.23-.09-.24-.09c1.87,3.83-.9,6.28-2.85,8.79-2.04,2.62-5.11,3.71-8.36,3.74-2.09,.02-1.09-1.61-.85-2.56,1.6-6.38,6.31-8.94,12.31-9.88Z"/><path class="l" d="M75.05,119.94c-.42-6.37,5.11-12.41,11.11-12.42,2.54,0,1.7,1.41,1.44,2.55-1.26,5.68-5.96,9.23-12.73,9.72,0,0,.17,.15,.17,.15Z"/><path class="l" d="M134.49,151.68c6.23,.69,10.65,3.07,12.74,8.72,.38,1.04,.77,2.49,.33,3.31-.65,1.23-2.12,.3-3.17,.1-5.42-1.05-8.67-4.96-9.9-12.13Z"/><path class="n" d="M174.59,63.02c-1.48,6.2-4.28,10.7-10.76,11.99-3.1,.62-3.41-.31-2.49-3.03,1.9-5.62,5.94-8.57,13.25-8.96Z"/><path class="g" d="M105.29,208.77h.05c-2.1,3.07-2.05,7.29-5.25,9.75-2.66,2.05-6.6,4.94-8.69,2.68-1.98-2.14,1.18-5.89,3.5-8.31,2.84-2.97,6.92-2.78,10.39-4.12Z"/><path class="j" d="M103.63,51.86c.25,7.63-2.33,12.17-7.49,14.39-2.61,1.12-3.37,.3-3.11-2.24,.65-6.39,4.4-10.09,10.61-12.15Z"/><path class="m" d="M71.46,105.82c-7.19-1.3-10.38-5.7-10.4-14.35,7.42,1.24,11.12,6.34,10.4,14.35Z"/><path class="l" d="M242.88,214.43c-1.19,6.97-4.6,10.98-9.91,12.16-2.86,.63-4.17,0-2.99-3.17,2.16-5.77,6.4-8.55,12.89-8.99Z"/><path class="p" d="M123.78,39l-.07,2.82c-6.36-.61-11.45-3.03-13.5-9.64-.28-.9-.68-2.12-.31-2.79,.57-1.01,1.75-.16,2.68-.04,5.89,.73,8.24,5.54,11.2,9.65Z"/><path class="i" d="M86.45,133.52c-.08,5.74-3.33,10.53-8.37,12.03-1.35,.4-3.16,1.35-4.22,.22-1.06-1.13-.08-2.79,.51-4.15,2.34-5.34,6.81-7.4,12.25-7.94,0,0-.16-.16-.16-.16Z"/><path class="n" d="M85.55,78.35c-5.1-.74-9.66-4.98-10.69-9.9-.25-1.21-.93-2.64,1.54-2.47,4.82,.34,10.38,4.99,11.33,9.73,.38,1.91,.43,3.47-2.18,2.64Z"/><path class="j" d="M172.8,196.52c5.11,.69,9.43,4.42,10.72,9.13,.58,2.12,.57,3.5-2.36,2.98-4.81-.85-9.57-5.34-10.49-10.01-.41-2.11,.14-2.84,2.13-2.11Z"/><path class="e" d="M42.18,133.83c5.34,2.81,8.97,6.62,8.69,13.16-.12,2.81-.79,3.6-3.45,1.95-4.99-3.09-6.9-8.24-5.23-15.11Z"/><path class="j" d="M91.16,102.77c1.61-8.18,5.18-11.37,13.07-11.92-.56,7.64-4.93,11.76-13.07,11.92Z"/><path class="j" d="M80.03,53.74c6.26,1.57,9.92,5.82,10.19,11.68,.13,2.67-.43,3.71-3.28,2.3-5.12-2.52-7.58-7.25-6.91-13.99Z"/><path class="j" d="M228.91,205.59c-2.06,.09-1.4-1.34-1.27-2.38,.6-4.84,6.49-9.95,11.45-10.15,1.39-.06,1.68,.34,1.67,1.59-.04,4.67-7.33,11.44-11.85,10.94Z"/><path class="p" d="M76.19,127.52c.94,6.26-4.83,13-10.96,12.93-2.95-.04-1.66-2.07-1.37-3.1,1.77-6.25,6.69-8.6,12.5-9.71-.01,0-.17-.11-.17-.11Z"/><path class="l" d="M82.03,217.53c1.56-.42,2.19,.15,1.76,1.77-.17,.64-.36,1.27-.59,1.89-1.86,4.94-7.31,9.02-11.16,8.62-1.51-.16-1.42-.88-1.35-1.95,.29-4.72,6.23-10.17,11.35-10.32Z"/><path class="e" d="M94.06,193.16c-1.1-6.51,3.92-12.76,10.57-13.42,2.45-.24,2.46,.87,1.89,2.56-1.57,4.67-4.42,8.05-9.35,9.44-1.08,.3-2.71-.55-3.14,1.32,0,.01,.03,.1,.03,.1Z"/><path class="g" d="M63.06,177.08c-.81-7.48,3.93-12.45,12.52-13.15-.3,6.32-3.65,10.43-9.6,11.9-1.03,.25-2.43-.33-2.99,1.15,.01,.01,.08,.11,.08,.11Z"/><path class="l" d="M121.69,69.53c-7.89-1.15-11.21-4.43-12.3-12.41,5.76,.73,10.5,2.57,12.31,8.69v3.71Z"/><path class="g" d="M118.69,125.49c-.37,4.56-5.99,9.91-10.72,10.35-1.9,.18-2.71-.14-2.34-2.33,.79-4.62,6.45-9.65,11.19-9.84,1.45-.06,2.28,.13,1.87,1.81Z"/><path class="p" d="M122.69,55.33c-7.87-.35-11.67-3.74-13.18-11.74,6.03-.35,9.33,1.65,12.15,7.38,.34,1.45,.69,2.91,1.03,4.36Z"/><path class="e" d="M122.62,27.22c-7.77-.68-10.87-3.53-12.79-11.77,6.8-.24,10.73,2.59,12.91,9.3-.04,.82-.08,1.64-.12,2.47Z"/><path class="j" d="M168.78,50.31c-.2,1.1-.37,2.24-.63,3.36-.84,3.6-3.09,6.13-6.23,7.92-.86,.49-1.69,.19-1.91-.8-.81-3.68-.53-7.23,1.75-10.39,.58-.8,1.18-1.64,1.96-2.22,1.22-.92,2.19-3.02,4-2.06,1.42,.75,.66,2.73,1.07,4.19Z"/><path class="e" d="M183.52,275.8c-4.84-.44-9.84-5.19-10.74-9.93-.33-1.71-.02-2.36,1.91-2.21,4.65,.36,9.98,4.88,10.99,9.46,.46,2.08,.14,3.28-2.17,2.67Z"/><path class="j" d="M151.81,80.77h-.03c-6.13-.6-10.15-3.92-11.65-9.56-.35-1.3-1.06-2.51,1.36-2.51,5.2,0,11.43,5.79,11.58,11.03,.02,.78-.47,1.14-1.25,1.05Z"/><path class="j" d="M122.68,13.26c-7.86-1.02-10.71-3.72-12.81-12.49,6.09,.75,10.86,2.8,12.92,8.95-.03,.36-.05,.72-.08,1.08-.01,.82-.03,1.64-.04,2.46Z"/><path class="o" d="M122.62,27.22c.04-.82,.08-1.64,.12-2.47,2.26-1.7-.14-4.7,2.12-6.94,1.48,3.48,.83,6.78,.74,10.01l-1.86-.03-1.12-.57Z"/><path class="d" d="M122.72,10.8c.03-.36,.05-.72,.08-1.08,2.26-2.66-.21-6.29,2.11-9.72,1.25,2.97,.79,5.45,.63,7.9-1.18,.73-.55,3.23-2.82,2.9Z"/><path class="k" d="M122.72,10.8c2.27,.33,1.64-2.17,2.82-2.9,.06,1.66,.16,3.31,.16,4.97,0,.94,.38,2.34-.78,2.6-1.44,.33-1.11-1.82-2.24-2.21,.01-.82,.03-1.64,.04-2.46Z"/><path class="h" d="M122.69,55.33c-.34-1.45-.69-2.91-1.03-4.36,2.48,.92,1.36-1.48,2.04-2.22-.05,2.47-.09,4.93-.14,7.4-.29-.27-.58-.55-.87-.82Z"/><path class="h" d="M121.69,69.53v-3.71l1.65,.18c.64,1.3,.91,2.56-.35,3.68l-1.3-.15Z"/><path class="f" d="M167.66,186.82c-.25-.99,.25-1.23,1.12-1.12,.63,1.37-.26,1.22-1.12,1.12Z"/><path class="f" d="M150.7,196.33c-1.06-1.41,.28-1.65,1.05-2.17,1.21,1.48-.53,1.53-1.05,2.17Z"/></g></g></g></svg>